<svg width="70" height="70" viewBox="0 0 70 70" fill="none" xmlns="http://www.w3.org/2000/svg">
<g clip-path="url(#clip0_4_166)">
<path d="M0 35.0847C0.165615 25.54 3.46757 17.3816 9.99901 10.5403C16.9756 3.60215 25.3736 0.0622253 35.2277 0C44.685 0.165934 52.8036 3.56067 59.6042 10.122C66.5359 17.1673 70.0034 25.6334 70 35.5168C69.7447 44.7953 66.4048 52.7878 59.9872 59.4943C52.914 66.505 44.4021 70.0242 34.4341 70C25.1148 69.7304 17.0515 66.4082 10.4269 59.8469C3.54002 53.0229 0.175966 44.657 0 35.0847ZM35.1415 68.5896C35.8695 68.5688 36.739 68.638 37.6015 68.5204C37.7741 68.4962 37.95 68.4893 38.1225 68.4686C38.4607 68.434 38.7988 68.396 39.1369 68.3614C39.4647 68.3303 39.7959 68.2992 40.1237 68.2681C40.1341 68.2681 40.141 68.2646 40.1479 68.2612C40.7103 68.154 41.2727 68.0468 41.8351 67.9362C42.0041 67.9051 42.1767 67.8809 42.3457 67.8394C42.8771 67.7046 43.405 67.5663 43.9329 67.4246C44.3262 67.3174 44.7195 67.2171 45.106 67.0927C45.6753 66.906 46.2411 66.709 46.7966 66.4946C47.3487 66.2838 47.8904 66.0418 48.4355 65.8171C49.3637 65.4368 50.2607 64.9943 51.1337 64.5034C51.803 64.1266 52.4655 63.736 53.1107 63.3177C53.887 62.813 54.6495 62.2875 55.3948 61.7379C55.9365 61.3403 56.4437 60.8909 56.9544 60.4519C57.4236 60.0474 57.8928 59.6395 58.3345 59.2039C58.89 58.6577 59.4282 58.0942 59.9527 57.5169C60.4806 56.9327 60.9981 56.3381 61.4846 55.7228C61.9642 55.1143 62.4162 54.4817 62.8544 53.8387C63.2512 53.2579 63.6273 52.6564 63.9826 52.0515C64.5761 51.0386 65.1212 49.998 65.5974 48.9264C65.939 48.1555 66.2426 47.3673 66.5566 46.5826C66.6946 46.2369 66.8326 45.8877 66.9396 45.5316C67.1293 44.9163 67.2984 44.2975 67.4778 43.6787C67.5503 43.4298 67.6193 43.1809 67.6814 42.932C67.7262 42.7453 67.7538 42.5586 67.7952 42.372C67.8608 42.0747 67.9402 41.7808 67.9954 41.4801C68.0713 41.0687 68.1299 40.6539 68.192 40.239C68.2438 39.8933 68.2852 39.5476 68.3335 39.2019C68.3404 39.1501 68.3473 39.0982 68.3542 39.0464C68.3749 38.8839 68.4025 38.7214 68.4198 38.5555C68.4301 38.4518 68.4198 38.3446 68.4301 38.2409C68.4784 37.7258 68.5509 37.2142 68.575 36.7026C68.6026 36.1252 68.5888 35.5445 68.5923 34.9637C68.5923 34.0269 68.5647 33.09 68.4922 32.1532C68.4681 31.8386 68.4439 31.524 68.4232 31.2094C68.4232 31.1818 68.4163 31.1576 68.4128 31.1334C68.3645 30.8153 68.3162 30.4973 68.2679 30.1793C68.23 29.92 68.1989 29.6607 68.1506 29.4015C68.0782 28.9901 67.9954 28.5822 67.916 28.1708C67.8366 27.7767 67.7676 27.3826 67.671 26.9954C67.5779 26.6255 67.4537 26.2625 67.3467 25.8961C67.1811 25.3326 67.0293 24.7622 66.843 24.2091C66.6428 23.6076 66.4324 23.0061 66.1874 22.4184C65.8872 21.7063 65.5422 21.0114 65.2282 20.3062C64.8728 19.5145 64.445 18.7609 64.0103 18.0073C63.3754 16.9115 62.6784 15.8536 61.909 14.8511C61.3984 14.1839 60.8636 13.5375 60.3288 12.891C60.0113 12.5073 59.6767 12.1339 59.3282 11.7744C58.8762 11.3112 58.4069 10.8652 57.9377 10.4193C57.5409 10.0459 57.1476 9.67258 56.7301 9.32688C56.2539 8.92933 55.7674 8.54215 55.2671 8.17571C54.5978 7.68482 53.9215 7.20776 53.2315 6.74453C52.7829 6.44378 52.3137 6.16722 51.8444 5.90449C51.1095 5.48965 50.3746 5.0679 49.619 4.69801C48.8772 4.33849 48.1112 4.02736 47.3487 3.72315C46.7759 3.49499 46.1894 3.3014 45.6063 3.10435C45.2543 2.98336 44.9093 2.84508 44.5401 2.76211C44.0847 2.66186 43.643 2.50284 43.191 2.3853C42.7701 2.27468 42.3457 2.17789 41.9179 2.09146C41.5349 2.01195 41.1485 1.95318 40.762 1.8875C40.7103 1.87713 40.6585 1.87367 40.6068 1.86676C40.3687 1.82182 40.1341 1.76305 39.8925 1.73194C39.5199 1.68354 39.1473 1.65243 38.7712 1.6144C38.2847 1.566 37.7982 1.51415 37.3117 1.46575C37.1978 1.45538 37.0771 1.47958 36.9701 1.45192C36.6493 1.36896 36.3284 1.37587 36.004 1.37587C35.2036 1.37587 34.4065 1.37587 33.6061 1.37587C33.5371 1.37587 33.4612 1.3655 33.3956 1.38278C32.8746 1.52106 32.3329 1.44155 31.805 1.53143C31.4255 1.59366 31.039 1.60749 30.6595 1.65588C30.3662 1.69391 30.0764 1.74922 29.7866 1.79762C29.514 1.84256 29.238 1.8875 28.9688 1.9359C28.7894 1.96701 28.61 2.02924 28.4306 2.03961C28.0614 2.05689 27.7164 2.17789 27.3645 2.26431C27.1022 2.32999 26.8435 2.39913 26.5812 2.46481C26.1292 2.57889 25.6738 2.67914 25.2287 2.81397C24.6801 2.98336 24.1419 3.17349 23.6036 3.37054C23.0516 3.5745 22.4961 3.775 21.9544 4.01007C21.3368 4.2728 20.726 4.54936 20.1291 4.85357C19.3459 5.25458 18.5661 5.66942 17.8071 6.11191C17.1515 6.49563 16.5167 6.91392 15.8922 7.3495C15.2607 7.78853 14.65 8.25868 14.0393 8.72883C13.6667 9.01575 13.3079 9.32688 12.9525 9.63801C12.5074 10.0286 12.0623 10.4262 11.6345 10.8376C11.2239 11.2317 10.8305 11.643 10.4407 12.0579C10.0473 12.4796 9.65398 12.9048 9.28135 13.3473C8.97082 13.7138 8.68099 14.1009 8.39462 14.4847C7.98748 15.0309 7.56999 15.5702 7.19391 16.1336C6.72466 16.8389 6.28302 17.5579 5.85173 18.2839C5.37559 19.0824 4.94775 19.9086 4.57167 20.7591C4.30599 21.3606 4.02652 21.9552 3.78155 22.5636C3.54002 23.1582 3.32265 23.7631 3.11563 24.3716C2.93277 24.9143 2.78095 25.4674 2.61879 26.0171C2.53253 26.3178 2.43937 26.6151 2.37037 26.9194C2.26686 27.3688 2.20475 27.8251 2.08744 28.271C1.96668 28.7204 1.93218 29.1768 1.84937 29.6296C1.80452 29.8785 1.75276 30.124 1.71481 30.3763C1.67685 30.6252 1.6458 30.8776 1.62855 31.1299C1.58714 31.645 1.55609 32.1601 1.51814 32.6752C1.51814 32.6925 1.51124 32.7098 1.50779 32.727C1.48019 32.9518 1.43533 33.1765 1.43533 33.4012C1.42843 34.4279 1.42153 35.458 1.43533 36.4848C1.44223 37.0171 1.50089 37.5495 1.53539 38.0819C1.53539 38.0992 1.53884 38.1165 1.54229 38.1337C1.59405 38.5486 1.64235 38.9669 1.6941 39.3817C1.72861 39.6513 1.75966 39.9175 1.80106 40.1837C1.86662 40.5778 1.93908 40.9719 2.00808 41.3625C2.06674 41.6771 2.11504 41.9952 2.1875 42.3097C2.29101 42.7557 2.41177 43.2016 2.52563 43.6441C2.60499 43.9553 2.67399 44.2698 2.76715 44.5775C2.91897 45.0649 3.08803 45.5455 3.2571 46.026C3.45722 46.5895 3.65043 47.153 3.8816 47.7026C4.14383 48.3249 4.4302 48.9402 4.72693 49.5486C5.03746 50.1916 5.35144 50.8346 5.69992 51.4569C6.08291 52.1413 6.50039 52.8051 6.92478 53.4654C7.46303 54.3054 8.03923 55.1178 8.67409 55.8852C9.01567 56.2966 9.32965 56.7287 9.68503 57.1263C10.175 57.6759 10.6822 58.2118 11.1997 58.7303C11.738 59.2696 12.2935 59.7951 12.8593 60.3032C13.2699 60.6731 13.7047 61.0119 14.1359 61.3507C14.6224 61.7344 15.1055 62.1285 15.6161 62.4777C16.4339 63.0308 17.2447 63.5977 18.1176 64.0644C18.6697 64.3617 19.2045 64.7005 19.7669 64.9736C20.626 65.3919 21.5024 65.7825 22.3787 66.1628C22.8963 66.3875 23.4242 66.588 23.9555 66.7677C24.5524 66.9717 25.1597 67.148 25.767 67.3312C25.974 67.3935 26.1844 67.4557 26.3915 67.511C26.702 67.5905 27.016 67.6631 27.3299 67.7357C27.6163 67.8014 27.8992 67.8774 28.1891 67.9327C28.5307 67.9984 28.8826 68.0192 29.2173 68.1125C29.69 68.2439 30.1799 68.2542 30.6561 68.3476C30.9873 68.4133 31.3323 68.4029 31.6739 68.4271C31.7084 68.4271 31.7464 68.4271 31.7809 68.434C32.3674 68.5412 32.9574 68.5896 33.5509 68.5861C34.0339 68.5861 34.517 68.5861 35.138 68.5861" fill="#231F20"/>
<path d="M35.0069 60.9566L32.8539 60.8667C32.4709 60.6973 32.0569 60.8218 31.6601 60.7215C31.2322 60.6143 30.7802 60.5936 30.3455 60.5106C29.7417 60.3931 29.1379 60.2687 28.5444 60.12C28.1097 60.0128 27.6819 59.8676 27.254 59.7294C26.7261 59.5565 26.1913 59.3975 25.6772 59.1901C25.001 58.917 24.3385 58.6024 23.6726 58.3051C22.7376 57.8868 21.8543 57.3717 21.0021 56.8082C20.3327 56.3623 19.6875 55.8818 19.0388 55.4013C18.4178 54.9415 17.8416 54.4333 17.2826 53.8975C16.4683 53.1128 15.6644 52.3142 14.9675 51.4223C14.4603 50.7758 13.96 50.1225 13.4907 49.4449C12.7834 48.4217 12.1761 47.3362 11.6379 46.2127C11.3032 45.5143 10.9927 44.8057 10.7201 44.0832C10.5096 43.5301 10.344 42.9631 10.1715 42.3962C10.0335 41.9398 9.89894 41.4835 9.78853 41.0203C9.67812 40.5536 9.59876 40.08 9.5056 39.6133C9.4573 39.3748 9.40554 39.1363 9.36414 38.8943C9.33654 38.7318 9.31928 38.5659 9.30203 38.3999C9.26408 38.0611 9.21923 37.7224 9.19162 37.3836C9.15367 36.9238 9.12607 36.4606 9.09156 35.9973C9.08466 35.9178 9.08466 35.8418 9.08466 35.7623C9.08466 35.3232 9.08121 34.8842 9.08466 34.4452C9.09156 34.0096 9.09156 33.5706 9.17782 33.1384C9.18472 33.0969 9.18817 33.052 9.18817 33.0071C9.15712 32.4885 9.26063 31.9803 9.33309 31.4722C9.39174 31.0401 9.43315 30.6079 9.51595 30.1793C9.60221 29.7368 9.73332 29.3012 9.84028 28.8622C9.92309 28.5268 9.9921 28.1846 10.0853 27.8527C10.3406 26.9608 10.6442 26.0862 10.9961 25.2254C11.3446 24.3647 11.7311 23.5246 12.1796 22.7122C12.5281 22.0796 12.8973 21.4608 13.2871 20.8489C13.5632 20.4134 13.8772 20.002 14.1877 19.5906C14.512 19.1585 14.8432 18.7298 15.1848 18.3115C15.6851 17.6996 16.2199 17.1223 16.7892 16.5761C17.2688 16.1164 17.7553 15.6566 18.2556 15.221C18.6524 14.8753 19.063 14.5469 19.4874 14.2392C20.1119 13.7898 20.7433 13.3473 21.3919 12.936C21.8922 12.6179 22.427 12.3621 22.9411 12.0648C23.6139 11.6742 24.3213 11.3596 25.0389 11.0657C25.6979 10.7996 26.3638 10.5507 27.0332 10.319C27.5818 10.1289 28.1408 9.97334 28.7066 9.84889C28.9861 9.78666 29.2587 9.69332 29.5347 9.62073C29.6692 9.58616 29.8073 9.56542 29.9418 9.54122C30.4214 9.45479 30.901 9.36146 31.3841 9.29577C31.7291 9.25083 32.081 9.25083 32.426 9.21626C32.6676 9.19552 32.9091 9.13675 33.1506 9.12293C34.1133 9.07107 35.0793 9.02959 36.042 9.07799C36.4112 9.09527 36.7803 9.09873 37.1461 9.1333C37.4808 9.16441 37.8154 9.22663 38.1501 9.27503C38.1846 9.27849 38.2191 9.2854 38.2536 9.2854C38.7815 9.2854 39.2922 9.40294 39.7994 9.52048C39.9926 9.56542 40.1962 9.56542 40.3894 9.6069C40.6447 9.65875 40.8966 9.73135 41.1484 9.79358C41.459 9.87309 41.7695 9.94568 42.08 10.0286C42.2318 10.0701 42.3768 10.1324 42.5251 10.1773C43.7948 10.5472 45.0197 11.0381 46.2101 11.6085C47.1554 12.0613 48.0663 12.5764 48.9462 13.1399C49.9813 13.8036 50.9646 14.5331 51.8962 15.3316C52.7174 16.0334 53.4902 16.787 54.2113 17.5856C54.7289 18.156 55.2188 18.754 55.6846 19.3659C56.1056 19.9225 56.4782 20.5171 56.8715 21.0944C57.3442 21.7892 57.7479 22.5221 58.124 23.2688C58.4828 23.9844 58.8348 24.7034 59.1004 25.4605C59.2695 25.9341 59.4731 26.3974 59.6283 26.8779C59.8043 27.4275 59.9492 27.9876 60.101 28.5476C60.2011 28.9175 60.2942 29.2874 60.377 29.6573C60.4323 29.8993 60.4633 30.1482 60.5047 30.3936C60.5289 30.5319 60.5565 30.6667 60.5806 30.805C60.6358 31.123 60.7083 31.4411 60.7428 31.7591C60.7911 32.1774 60.8049 32.5957 60.8394 33.014C60.8532 33.1972 60.8842 33.377 60.9015 33.5567C60.9153 33.695 60.9256 33.8333 60.9256 33.9716C60.9256 34.6215 60.9256 35.2714 60.9256 35.9213C60.9256 36.1494 60.9394 36.3741 60.8532 36.5954C60.8187 36.6887 60.8394 36.8028 60.8394 36.91C60.8394 37.4354 60.7911 37.954 60.691 38.4725C60.6117 38.8839 60.5737 39.3022 60.5013 39.7136C60.4392 40.0627 60.3563 40.4084 60.277 40.7541C60.1976 41.1102 60.1217 41.4662 60.0251 41.8189C59.932 42.1611 59.8181 42.4964 59.7077 42.8352C59.5938 43.1809 59.48 43.5266 59.3592 43.8723C59.2419 44.2007 59.1246 44.5257 58.99 44.8437C58.7796 45.338 58.5656 45.8324 58.3345 46.3164C58.1343 46.7312 57.9135 47.1357 57.6927 47.5401C57.2028 48.432 56.6542 49.2893 56.0573 50.119C55.5708 50.7931 55.0532 51.4396 54.5046 52.0653C53.7697 52.9053 52.9796 53.6866 52.1515 54.4333C51.075 55.4013 49.9088 56.2551 48.6874 57.026C47.8076 57.5791 46.9001 58.0873 45.9478 58.5091C45.0887 58.8893 44.2089 59.2247 43.3325 59.56C42.8702 59.7363 42.3975 59.8815 41.9179 60.0094C41.4003 60.1477 40.8724 60.2445 40.348 60.362C40.0271 60.4346 39.7062 60.521 39.3853 60.5832C39.0852 60.6385 38.7781 60.6489 38.4813 60.7146C38.0777 60.8079 37.6567 60.7111 37.2634 60.8598C37.2392 60.8702 37.2116 60.8667 37.184 60.8667C36.456 60.8978 35.7314 60.9289 35 60.9566M59.8457 35.0017C59.8975 28.3125 57.1924 22.0347 52.6898 17.5233C47.9387 12.7631 42.1559 10.3398 35.4382 10.1289C28.3478 10.1254 22.2373 12.5453 17.255 17.6098C12.7454 22.1972 10.3682 27.7629 10.175 34.1859C9.95759 41.3833 12.4211 47.5989 17.5276 52.6737C22.2476 57.3648 28.02 59.7743 34.6722 59.8607C48.7943 60.044 59.9113 48.6291 59.8457 35.0017Z" fill="#231F20"/>
<path d="M8.0151 50.2469C8.13241 50.4405 8.24628 50.6203 8.37049 50.8208C8.85008 50.52 9.31587 50.2331 9.78167 49.9427C9.89898 49.8701 10.0163 49.7906 10.1336 49.7145C10.282 49.6178 10.3579 49.6316 10.4614 49.7733C10.4855 49.8079 10.5097 49.8459 10.5304 49.8839C10.6235 50.043 10.6166 50.0879 10.4683 50.1847C10.3441 50.2677 10.2164 50.3403 10.0508 50.444C10.4027 50.6134 10.7271 50.7689 11.0686 50.9349C11.0686 50.9971 11.0824 51.0697 11.0686 51.1319C10.9893 51.4741 10.9168 51.5018 10.6166 51.3013C10.5649 51.2667 10.5131 51.2356 10.4579 51.208C10.4372 51.1976 10.4096 51.1941 10.3786 51.1838C10.3441 51.3359 10.3199 51.4845 10.2682 51.6262C10.2061 51.8026 10.0853 51.9374 9.90588 52.0203C9.78857 52.0757 9.68506 52.1586 9.5781 52.2347C9.50564 52.2831 9.44008 52.3418 9.36073 52.4075C9.42973 52.5078 9.48839 52.6115 9.5643 52.7014C9.6264 52.774 9.6057 52.8396 9.55395 52.8846C9.48149 52.9468 9.39868 53.009 9.30897 53.0332C9.26412 53.0471 9.17096 53.0021 9.13991 52.9537C8.90529 52.5873 8.68447 52.2105 8.45329 51.8406C8.30493 51.6055 8.14967 51.3773 7.9599 51.087V51.9996H7.4665C7.4665 51.8959 7.4527 51.7991 7.4665 51.7092C7.53206 51.3773 7.61142 51.0455 7.67697 50.7136C7.68732 50.6514 7.65282 50.5822 7.63557 50.5166C7.61487 50.5166 7.59417 50.5166 7.57346 50.5166C7.47685 50.8173 7.3768 51.1181 7.28364 51.4188C7.12837 51.927 7.18358 51.8302 6.77299 51.609C6.75919 51.602 6.75229 51.5813 6.72469 51.5502C6.74194 51.4983 6.75919 51.4327 6.78679 51.3739C6.97311 50.9902 7.16288 50.6099 7.34919 50.2262C7.4113 50.0983 7.36299 49.8874 7.20083 49.7941C7.08352 49.7284 7.05247 49.6281 7.01106 49.5382C6.66258 48.7881 6.3141 48.0379 5.99322 47.2739C5.90006 47.0561 5.75515 46.8522 5.74135 46.6033C5.74135 46.5964 5.71374 46.5895 5.68614 46.5756C5.52053 46.9628 5.35836 47.3534 5.17894 47.7752C5.03403 47.7061 4.89602 47.6404 4.73385 47.5609C4.76146 47.471 4.77526 47.388 4.81666 47.3154C5.02368 46.9421 5.23415 46.5687 5.44807 46.1988C5.51017 46.0882 5.50672 45.9879 5.46187 45.8739C5.37216 45.6319 5.28935 45.383 5.2031 45.141C5.03748 45.179 4.86842 45.2378 4.69245 45.262C4.29566 45.3138 4.05069 45.0788 3.86437 44.7746C3.65736 44.4427 3.67461 44.0693 3.76777 43.7098C3.84367 43.416 4.10935 42.8594 4.44748 42.5967C4.38192 42.3789 4.31292 42.1542 4.25081 41.9295C4.19905 41.7428 4.21286 41.7082 4.36122 41.608C4.35432 41.5976 4.34742 41.5769 4.34052 41.5734C4.08519 41.5285 4.099 41.5285 4.07829 41.2865C4.05069 40.9408 4.00584 40.5951 3.96443 40.2494C3.92993 39.9555 3.89198 39.6617 3.85402 39.3644C3.84712 39.2987 3.83332 39.2296 3.81952 39.1432C3.75051 39.1708 3.69876 39.1812 3.66081 39.2088C2.99834 39.6617 2.48425 39.0775 2.42904 38.552C2.39109 38.1856 2.56706 37.9194 2.81548 37.7051C3.00525 37.5426 3.22262 37.4078 3.44689 37.3006C3.5987 37.228 3.647 37.1589 3.60215 37.0033C3.58145 36.9307 3.5918 36.8477 3.58835 36.7579C3.74016 36.7198 3.87818 36.6818 4.03689 36.6403C4.05414 36.7337 4.06794 36.8166 4.07829 36.8927C4.47508 36.8927 4.86842 36.9238 5.25485 36.8823C5.54123 36.8512 5.8207 36.7855 6.11053 36.789C6.20714 36.789 6.3003 36.789 6.41071 36.789C6.51767 36.9618 6.46936 37.1416 6.46246 37.3594C6.31755 37.3594 6.17954 37.3594 6.04497 37.3594C5.95872 37.3594 5.85866 37.3352 5.7862 37.3697C5.55848 37.4769 5.32386 37.4389 5.08924 37.4562C4.79251 37.4769 4.49923 37.5115 4.168 37.5426C4.13005 38.1234 4.31637 38.6765 4.34052 39.2572C4.39227 39.2469 4.42678 39.2434 4.45783 39.233C4.50613 39.2158 4.55099 39.195 4.56824 39.1881C4.54064 38.998 4.50613 38.8286 4.49578 38.6592C4.47163 38.2824 5.00298 37.8814 5.37906 37.9471C5.66199 37.9989 6.02082 38.1752 6.28995 38.4172C6.25889 38.4863 6.22784 38.5658 6.18644 38.6384C6.05187 38.8735 6.05877 38.8631 5.8276 38.7214C5.69649 38.6384 5.54813 38.5797 5.39976 38.5313C5.23415 38.4794 4.99608 38.6281 4.98573 38.7664C4.97538 38.9288 5.13409 39.1017 5.31696 39.0982C5.54123 39.0982 5.76205 39.1155 5.98977 39.0325C6.16918 38.9669 6.3831 38.998 6.60047 38.9876C6.66258 39.1639 6.75229 39.3402 6.67638 39.5649C6.50732 39.5718 6.33825 39.5822 6.12778 39.5926C6.39001 40.0143 6.35895 40.3738 6.03807 40.6919C5.81035 40.92 5.38596 40.9926 5.09269 40.844C4.74075 40.6642 4.64415 40.3427 4.58894 39.9763C4.74765 39.9244 4.88222 39.8795 5.03748 39.8311C5.05473 39.9071 5.06508 39.9555 5.07543 40.0039C5.13064 40.2736 5.22035 40.3427 5.48947 40.3254C5.69304 40.3116 5.78275 40.2183 5.77585 40.0316C5.76895 39.838 5.64819 39.7136 5.45842 39.7308C5.12374 39.762 4.78561 39.8069 4.47508 39.8449C4.45093 39.8795 4.44058 39.8899 4.44058 39.8968C4.46473 40.1906 4.45438 40.4948 4.52683 40.7748C4.59584 41.0307 4.57169 41.2761 4.58204 41.5319C4.6407 41.6011 4.7097 41.6806 4.79596 41.7774C5.49637 41.5803 6.23129 41.3694 6.99381 41.1517C7.03866 41.3418 7.08007 41.5077 7.12492 41.7048C6.39691 41.964 5.63439 42.1127 4.89602 42.3823C4.94777 42.5344 4.98918 42.6623 5.04438 42.8248C5.23415 42.7868 5.42737 42.7557 5.61368 42.7038C5.8207 42.6451 6.02427 42.5621 6.23129 42.4964C6.42106 42.4376 6.54527 42.5241 6.54527 42.7177C6.54527 42.8006 6.53147 42.8905 6.49696 42.9666C6.42106 43.1394 6.33825 43.3123 6.23819 43.4747C6.09673 43.7029 5.92766 43.6925 5.8207 43.4471C5.76205 43.3088 5.68269 43.2846 5.55503 43.3261C5.46532 43.3572 5.37216 43.3745 5.28245 43.3952C5.2307 43.5646 5.35491 44.0659 5.51362 44.3355C5.86211 44.2422 6.21404 44.1523 6.55907 44.0486C6.8765 43.9518 7.18703 43.8412 7.49756 43.734C7.67697 43.6718 7.75288 43.7063 7.80118 43.893C7.89089 44.2491 7.89089 44.2526 7.53551 44.3597C6.9248 44.5464 6.31065 44.7296 5.67579 44.9197C5.7448 45.1479 5.81035 45.3691 5.88626 45.6111C6.64878 45.3726 7.33194 44.9923 8.07721 44.7676C8.14277 44.9785 8.19107 45.141 8.23937 45.3104C7.51826 45.6077 6.82129 45.8911 6.11743 46.1815C6.19679 46.3786 6.26234 46.548 6.3348 46.7346C6.45211 46.6897 6.56942 46.6448 6.68673 46.5929C7.21118 46.3578 7.73218 46.1193 8.25663 45.8842C8.40499 45.8151 8.474 45.8497 8.53955 46.0052C8.62696 46.215 8.56715 46.374 8.36014 46.4823C8.31528 46.5065 8.26698 46.5238 8.20832 46.548C8.36014 46.6897 8.51195 46.8211 8.64996 46.9663C8.86388 47.1944 9.01224 47.4537 9.0157 47.7787C9.0157 48.0068 8.91219 48.1969 8.74657 48.3214C8.63961 48.4044 8.474 48.4044 8.30493 48.4493C8.22557 48.6014 8.15312 48.7985 7.95645 48.9091C7.72183 49.0404 7.51136 49.0093 7.37679 48.7777C7.28364 48.6152 7.21463 48.4355 7.14217 48.2592C7.10422 48.1693 7.06627 48.1485 6.98346 48.2281C7.13872 48.6014 7.28709 48.9782 7.4596 49.3447C7.51481 49.4622 7.64247 49.5452 7.74943 49.635C7.77013 49.6558 7.83914 49.6419 7.87364 49.6212C8.20142 49.4414 8.52575 49.2582 8.85008 49.075C9.12266 48.9194 9.39523 48.7639 9.66781 48.6118C9.74026 48.5703 9.80237 48.5876 9.84377 48.6602C9.84722 48.6671 9.85067 48.6775 9.85412 48.6844C10.0749 49.0612 10.0749 49.0577 9.68851 49.2721C9.18476 49.5521 8.68446 49.8321 8.18417 50.1156C8.13241 50.1467 8.08756 50.1882 8.02545 50.2331M7.90124 47.3154C7.94265 47.3949 7.9806 47.4606 8.01165 47.5263C8.04961 47.6023 8.07721 47.6853 8.12551 47.7579C8.18417 47.8512 8.28768 47.872 8.38429 47.8374C8.49125 47.7994 8.5085 47.6991 8.4878 47.5989C8.46364 47.4814 8.43259 47.3673 8.34288 47.2705C8.16347 47.0873 7.953 46.949 7.72528 46.8349C7.68387 46.8142 7.61832 46.8038 7.57691 46.8211C7.21808 46.949 6.8627 47.0873 6.53147 47.2878C6.60047 47.4468 6.65913 47.5885 6.72469 47.7441C6.8696 47.6784 6.99381 47.6162 7.12492 47.5643C7.25948 47.509 7.31469 47.5332 7.36989 47.6646C7.3975 47.7268 7.4113 47.7994 7.44235 47.8582C7.54586 48.0414 7.58381 48.2626 7.73563 48.4251C7.91159 48.2557 7.90814 48.2557 7.82189 48.0863C7.75978 47.9619 7.71148 47.8305 7.64937 47.7061C7.59417 47.5989 7.62177 47.5194 7.70803 47.4537C7.76323 47.4122 7.81844 47.3742 7.90124 47.3154ZM4.63034 43.1394C4.30946 43.4747 4.13695 43.8204 4.15765 44.2456C4.1749 44.5533 4.38192 44.7642 4.63034 44.7365C4.78216 44.7192 4.94087 44.695 5.05818 44.574C4.91672 44.1039 4.78216 43.6441 4.63034 43.1394ZM8.64996 51.2944C8.78107 51.5087 8.89839 51.6988 9.03295 51.9166C9.30552 51.7403 9.55739 51.5882 9.79892 51.4223C9.84032 51.3946 9.86792 51.3255 9.87827 51.2702C9.90588 51.1181 9.85412 51.0005 9.71956 50.9141C9.5919 50.8311 9.45734 50.8 9.32622 50.8761C9.10195 51.0075 8.88458 51.1526 8.64996 51.2978M3.67461 37.7949C3.47104 37.8088 3.38133 37.8503 3.12601 38.0127C2.95004 38.1234 2.88448 38.2789 2.90174 38.4794C2.92244 38.7214 3.01905 38.8286 3.25367 38.7906C3.42618 38.7629 3.58835 38.6765 3.74361 38.6212C3.81607 38.3135 3.72636 38.0577 3.67806 37.7949" fill="#231F20"/>
<path d="M15.2884 56.2655C15.3815 56.2551 15.4402 56.2413 15.4988 56.2413C15.8335 56.2344 15.8473 56.262 15.8611 56.5905C15.8749 56.9189 15.7956 57.2265 15.7093 57.5377C15.6644 57.7071 15.5747 57.835 15.454 57.9525C15.2194 58.1841 14.8778 58.2429 14.6052 57.9318C14.5017 57.8142 14.3706 57.7209 14.2636 57.6103C14.1532 57.4962 14.0566 57.3717 13.9324 57.23C13.8392 57.3337 13.784 57.3959 13.7047 57.4858C13.9738 57.7485 14.2429 58.0044 14.5086 58.2671C14.7743 58.5298 15.0261 58.8133 15.4264 58.9585C15.4643 58.9101 15.5195 58.8375 15.5816 58.7649C15.6748 58.6612 15.7611 58.5471 15.8611 58.4538C16.0612 58.2671 16.1682 58.2567 16.4063 58.3742C16.4442 58.395 16.4822 58.4192 16.5305 58.4468C16.7444 58.077 16.4822 57.7105 16.5305 57.3302H17.0687C17.1722 58.0942 17.0791 58.8513 17.0066 59.636C16.8203 59.6222 16.6512 59.6084 16.4649 59.5946C16.4649 59.4666 16.4718 59.3457 16.4649 59.2281C16.458 59.1002 16.4891 58.9343 16.3269 58.8893C16.1889 58.8513 16.1233 58.9861 16.0509 59.0864C15.9922 59.1728 15.9232 59.2454 15.837 59.3491C16.2579 59.6844 16.6685 60.0094 17.0929 60.3447C17.538 59.7121 17.9658 59.1037 18.3971 58.4849C18.5765 58.4849 18.787 58.6059 18.9008 58.7856C18.4696 59.401 18.0383 60.0163 17.6001 60.6489C17.7898 60.7976 17.9727 60.9428 18.1694 61.0949C18.5524 60.4311 18.9146 59.7985 19.2873 59.1555C19.4943 59.0656 19.622 59.2661 19.8255 59.3318C19.7979 59.4079 19.7876 59.4805 19.7531 59.5427C19.5978 59.8158 19.4391 60.0854 19.27 60.3758C19.4253 60.4623 19.5599 60.5383 19.7082 60.6247C19.7634 60.5487 19.8152 60.483 19.8635 60.4104C19.9221 60.3171 20.0049 60.2825 20.1085 60.2963C20.212 60.3067 20.281 60.362 20.3051 60.4726C20.3603 60.7146 20.4259 60.9566 20.4845 61.1986C20.5121 61.3161 20.4604 61.3991 20.3672 61.4682C20.2741 61.5374 20.2016 61.4786 20.1292 61.4371C20.0843 61.4129 20.0394 61.3853 19.9739 61.3472C19.8669 61.5305 19.76 61.6929 19.6703 61.8692C19.6151 61.9799 19.6703 62.0352 19.86 62.0732C19.8945 62.0006 19.929 61.9211 19.9635 61.8519C20.1154 61.7794 20.212 61.9107 20.3293 61.9522C20.3569 61.9626 20.3741 62.0767 20.3569 62.132C20.2706 62.3912 20.067 62.5191 19.8117 62.5537C19.5944 62.5848 19.2666 62.3498 19.1596 62.132C19.0561 61.9211 19.0872 61.731 19.2045 61.5374C19.2942 61.3887 19.377 61.2332 19.4701 61.0638C19.3114 60.9704 19.1665 60.884 19.0216 60.7976C18.9112 60.9912 18.8077 61.1709 18.6973 61.368C18.7835 61.4233 18.8698 61.4751 18.956 61.5305C18.9698 61.6365 18.9284 61.769 18.8318 61.928C18.7628 61.9107 18.68 61.9003 18.6041 61.8658C18.0107 61.5996 17.5242 61.1675 16.979 60.8218C16.3649 60.4311 15.837 59.9264 15.2608 59.4908C15.0951 59.3664 14.9537 59.2074 14.7363 59.1555C14.6846 59.1417 14.6466 59.076 14.6017 59.0311C14.2671 58.6992 13.9289 58.3673 13.5736 58.0182C13.5045 58.3017 13.3976 58.5298 13.1837 58.6957C12.9801 58.8548 12.7627 58.9066 12.5247 58.7856C12.1382 58.5955 11.8725 58.2982 11.8346 57.8626C11.8173 57.6829 11.8967 57.4893 11.9554 57.306C12.0175 57.109 12.1037 56.9189 12.1865 56.7045C12.0278 56.5144 11.8622 56.3174 11.6931 56.1203C11.217 55.5707 10.7374 55.0245 10.2647 54.4748C10.1301 54.3158 10.137 54.2674 10.2923 54.1326C10.4683 53.977 10.4683 53.977 10.6546 54.1844C11.2239 53.6866 11.7966 53.1888 12.3797 52.6806C12.5281 52.8155 12.6834 52.9122 12.7282 53.0782C12.6006 53.2268 12.4902 53.3582 12.3728 53.493C12.5626 53.6036 12.7386 53.7488 12.8662 53.9597C13.1078 54.3538 13.0629 54.8723 12.7075 55.2699C12.642 55.3425 12.573 55.3425 12.5005 55.2837C12.466 55.2561 12.4419 55.218 12.4108 55.1869C12.1831 54.9691 11.9416 55.0141 11.8104 55.3045C11.7863 55.3563 11.7656 55.4151 11.7449 55.4739C11.9657 55.7158 12.1796 55.9578 12.4108 56.2136C12.9283 55.7228 13.4252 55.2526 13.9186 54.7825C14.0669 54.6373 14.1118 54.6338 14.2567 54.7928C14.5155 55.0729 14.5086 55.0625 14.2153 55.3252C13.7599 55.7366 13.3148 56.1583 12.8662 56.5801C12.849 56.5974 12.8421 56.6216 12.8179 56.6631C12.9594 56.8013 13.1043 56.9362 13.2354 57.0606C13.4735 56.8359 13.7081 56.625 13.9289 56.4003C14.1981 56.1272 14.4534 55.8368 14.7225 55.5568C14.8674 55.4047 14.895 55.4082 15.0365 55.5499C15.0537 55.5672 15.071 55.5914 15.0882 55.6087C15.3125 55.8092 15.3091 55.8023 15.1089 56.0028C14.8191 56.2932 14.5327 56.5905 14.236 56.8947C14.4465 57.1055 14.6432 57.3199 14.8536 57.51C14.9606 57.6068 15.1262 57.5377 15.178 57.3683C15.2332 57.1816 15.316 56.9984 15.2884 56.7875C15.2642 56.6181 15.2849 56.4418 15.2849 56.2586M12.5074 54.6131C12.5074 54.4852 12.5212 54.3815 12.5074 54.2812C12.4626 53.9493 11.9761 53.8076 11.8104 53.9355C11.531 54.1498 11.2722 54.3884 10.9996 54.6234C11.1273 54.7721 11.2273 54.8931 11.3412 55.0245C11.6724 54.5059 11.9485 54.4195 12.5109 54.6131M12.5971 57.109C12.4384 57.2957 12.3866 57.5066 12.3211 57.7105C12.2417 57.9525 12.3728 58.2049 12.6213 58.2913C12.7938 58.3535 12.9836 58.2187 13.0698 57.9802C13.0767 57.9629 13.0698 57.9456 13.0802 57.9283C13.1216 57.835 13.1664 57.7416 13.2216 57.631C13.1388 57.5584 13.0422 57.4754 12.9421 57.389C12.8352 57.2991 12.7282 57.2127 12.5971 57.1021" fill="#231F20"/>
<path d="M4.5475 35.0052C4.45089 34.86 4.35773 34.7217 4.26112 34.58C4.41294 34.4348 4.65791 34.4555 4.70276 34.1997C4.49919 34.0995 4.28527 34.1617 4.061 34.1444C4.03685 34.58 4.0127 34.9879 3.992 35.4166C3.91609 35.4304 3.84363 35.4581 3.76773 35.4615C3.56071 35.4684 3.49515 35.4062 3.4986 35.1988C3.5055 34.701 3.52275 34.1997 3.53656 33.7019C3.54001 33.5014 3.54001 33.2975 3.55036 33.097C3.56416 32.7582 3.58486 32.4159 3.60211 32.0702C3.66767 32.0564 3.73322 32.0426 3.86089 32.0184C3.62971 31.9285 3.66077 31.8006 3.71252 31.6623C3.72632 31.6208 3.74012 31.5793 3.74357 31.5379C3.79878 31.1334 3.85398 30.7255 3.90574 30.321C3.92299 30.1827 3.92299 30.041 3.95404 29.9062C3.99545 29.723 4.00925 29.723 4.18176 29.7679C4.26457 29.7886 4.34738 29.8059 4.44744 29.8267C4.43709 29.9235 4.42674 30.0133 4.41639 30.124C4.62686 30.1551 4.81662 30.2622 5.04434 30.2C5.05124 30.1309 5.05469 30.0617 5.06505 29.9961C5.0961 29.799 5.10645 29.602 5.23411 29.4326C5.28587 29.3669 5.31692 29.2701 5.31692 29.1906C5.32382 28.8656 5.22031 28.6409 4.84423 28.6582C4.76832 28.6582 4.68896 28.679 4.6165 28.6859C4.5475 28.8587 4.56475 28.9878 4.66826 29.073C4.76832 28.9486 4.88908 28.8587 5.0685 28.914C5.17891 28.9486 5.23066 29.0212 5.20651 29.1249C5.16165 29.3047 4.89943 29.5467 4.72346 29.5674C4.47159 29.5985 4.28182 29.5017 4.13346 29.3012C4.10241 29.2597 4.07481 29.2079 4.07135 29.1595C4.04375 28.7999 4.07135 28.475 4.40949 28.233C4.82007 27.9392 5.41008 28.0256 5.66195 28.4681C5.75166 28.6236 5.79651 28.8034 5.86897 28.9832C6.05874 28.8069 6.08634 28.5856 6.03803 28.3609C6.00698 28.2192 5.94143 28.0809 5.87242 27.9495C5.80686 27.8251 5.72406 27.7387 5.54809 27.7317C5.37212 27.7248 5.20306 27.6384 5.02709 27.5935C4.99604 27.5866 4.95809 27.5935 4.91323 27.5935C4.86493 27.7041 4.81662 27.8147 4.76487 27.9323C4.75797 27.9357 4.74072 27.9495 4.72346 27.9495C4.31978 27.9426 4.28182 27.915 4.38533 27.5416C4.48884 27.1683 4.55785 26.788 4.69586 26.4181C4.82352 26.0862 4.96154 25.7371 4.96154 25.3672C4.96154 25.3361 4.97879 25.3015 4.99259 25.2669C5.32727 24.4476 5.66195 23.6318 6.00698 22.7779C6.15534 22.8298 6.29681 22.8782 6.45552 22.9335C6.42792 23.0372 6.40377 23.1167 6.38307 23.1893C6.96272 23.4244 7.53892 23.6594 8.11857 23.8911C8.19793 23.9222 8.28419 23.9395 8.367 23.9637C8.46361 23.9913 8.53606 24.0501 8.50156 24.1503C8.4498 24.2955 8.37045 24.4269 8.29454 24.5825C7.86325 24.4131 7.45611 24.254 7.03172 24.0847C6.95582 24.2748 6.87646 24.4649 6.7902 24.6827C6.86266 24.7207 6.94892 24.7553 7.02482 24.8037C7.10418 24.8521 7.19389 24.8936 7.19734 25.0146C7.20079 25.139 7.12833 25.1771 7.03172 25.2151C6.82816 25.2911 6.63149 25.3845 6.42792 25.4502C6.30371 25.4882 6.17605 25.4432 6.09669 25.343C6.02423 25.2462 6.04839 25.139 6.09669 25.0249C6.2554 24.6654 6.39342 24.299 6.55213 23.9084C6.42792 23.8427 6.30371 23.777 6.15189 23.7009C6.07254 23.9014 6.00353 24.0847 5.93107 24.2644C5.78616 24.6239 5.63435 24.9835 5.49978 25.3464C5.45148 25.4744 5.44803 25.6161 5.41698 25.782C6.14154 26.0102 6.86611 26.2383 7.62173 26.4734C7.57688 26.6463 7.53547 26.8087 7.48027 27.0092C7.09383 26.9366 6.73155 26.8191 6.36926 26.6981C6.00008 26.5737 5.624 26.4803 5.23411 26.3697C5.1651 26.5771 5.0961 26.7776 5.02019 27.0092C5.76546 27.1821 6.50383 27.3549 7.26635 27.5312C7.23529 27.7041 7.21114 27.8562 7.17319 28.0048C7.14904 28.1016 7.05588 28.1051 6.97652 28.0878C6.8109 28.0498 6.64529 28.0014 6.45552 27.953C6.53833 28.3505 6.58318 28.7239 6.40377 29.073C6.22435 29.4222 5.94488 29.6607 5.53429 29.7575C5.55844 29.9857 5.54464 30.2069 5.24101 30.2692C5.33072 30.4351 5.41008 30.5837 5.50324 30.7635C5.77926 30.601 6.07254 30.4282 6.38307 30.245C6.47622 30.4109 6.64184 30.5353 6.59354 30.7635C5.97248 31.0919 5.38938 31.4964 4.67861 31.6692C4.61995 31.5586 4.5613 31.4549 4.50954 31.3477C4.44744 31.2198 4.48194 31.1611 4.63031 31.1299C4.69586 31.1161 4.77867 31.1161 4.82697 31.0815C4.88218 31.0401 4.94083 30.964 4.94083 30.9018C4.94083 30.8084 4.84077 30.7981 4.75797 30.7981C4.61995 30.7981 4.48194 30.7981 4.33358 30.7981C4.24042 31.282 4.14036 31.7868 4.03685 32.3261C4.18521 32.3468 4.31978 32.3779 4.45434 32.3814C4.98914 32.3883 5.52739 32.3814 6.06219 32.3814H6.33821V32.9414H5.1375V33.3735C5.04779 33.4496 4.96844 33.5118 4.88908 33.574C4.99259 33.7261 5.0892 33.8644 5.19961 34.0234C5.41698 33.8506 5.64125 33.6708 5.86207 33.4876C5.97593 33.3943 6.01043 33.3977 6.11049 33.5083C6.13809 33.5394 6.16915 33.574 6.1933 33.6086C6.33476 33.8125 6.32441 33.8333 6.13119 33.9785C5.6378 34.3553 5.1306 34.7079 4.52335 35.0156M4.68551 32.8031C4.50264 32.7824 4.35083 32.7651 4.19557 32.7513C4.09896 32.7409 4.0127 32.7685 4.0127 32.8826C4.0127 33.0451 4.0265 33.2076 4.03685 33.3735H4.65791C4.66826 33.1765 4.67516 33.0002 4.68551 32.8031Z" fill="#231F20"/>
<path d="M12.956 14.5434C13.094 14.6921 13.1664 14.7578 13.2251 14.8304C13.3286 14.9652 13.3113 15.0723 13.1561 15.1484C13.0733 15.1899 12.9698 15.2244 12.8835 15.2141C12.6868 15.1899 12.4867 15.1518 12.2969 15.0931C12.1106 15.0343 12.0761 14.8476 12.2176 14.6955C12.4591 14.4328 12.711 14.1735 12.9594 13.9143C13.0077 13.8659 13.0526 13.814 13.1112 13.7518C13.0043 13.655 12.9111 13.5686 12.8179 13.4821C12.5695 13.61 11.5206 14.7128 11.4033 14.9721C11.5551 15.1173 11.7104 15.2694 11.8726 15.4111C12.2279 15.7222 12.5902 16.0265 12.9456 16.3341C13.1181 16.4862 13.1181 16.5208 12.9594 16.6902C12.9422 16.7109 12.9215 16.7282 12.9042 16.7455C12.7558 16.8942 12.7075 16.8976 12.5557 16.7662C12.2107 16.4655 11.8691 16.1682 11.5275 15.8674C11.3516 15.7119 11.1721 15.5598 10.9789 15.3938C10.8099 15.6013 10.6511 15.7914 10.489 15.9919C11.1273 16.4344 11.7587 16.8734 12.4143 17.3297C12.3211 17.4611 12.2383 17.589 12.1382 17.7065C12.0692 17.7895 11.9864 17.7584 11.9071 17.6962C11.807 17.6132 11.6966 17.5441 11.5758 17.4576C11.5034 17.6754 11.4482 17.8794 11.3723 18.0764C11.2757 18.3288 10.9341 18.6192 10.589 18.5881C10.313 18.5604 10.1819 18.3772 10.037 18.1974C10.0163 18.1698 10.0094 18.1352 9.99559 18.0937C9.86448 18.1041 9.73336 18.1214 9.6057 18.1179C9.32278 18.111 9.10196 17.9796 8.97429 17.7238C8.90529 17.5855 8.90529 17.4404 8.97429 17.2917C9.10541 17.0013 9.36073 16.8354 9.65056 16.8561C9.68506 16.8561 9.72301 16.8561 9.75407 16.87C10.0163 16.9564 10.0473 17.0532 9.88863 17.2744C9.86793 17.3021 9.84722 17.3297 9.80927 17.3747C9.74716 17.3539 9.68161 17.3366 9.62295 17.3055C9.54015 17.2641 9.48494 17.2952 9.44699 17.3643C9.40558 17.4369 9.44009 17.506 9.50909 17.5406C9.56775 17.5717 9.63675 17.5994 9.70576 17.6028C9.81962 17.6097 9.93348 17.5925 10.0508 17.589C10.1405 17.4369 10.2268 17.2882 10.313 17.1327H10.7581C10.7374 17.2157 10.7305 17.2813 10.7064 17.3401C10.6477 17.4646 10.5752 17.5786 10.5166 17.7031C10.4648 17.8137 10.5062 17.9174 10.6028 17.9796C10.696 18.0384 10.8064 18.035 10.8927 17.9554C10.9306 17.9209 10.9789 17.8794 10.9893 17.8344C11.0341 17.6063 11.1307 17.3816 11.0376 17.1431C11.0203 17.0981 10.9927 17.0463 10.9548 17.0186C10.6995 16.8354 10.4441 16.6591 10.1854 16.4793C9.93348 16.7904 9.93003 16.7904 9.78512 16.704C9.56775 16.5692 9.5643 16.5485 9.68506 16.2788C9.48839 16.303 9.32968 16.2339 9.16406 16.1336C8.75692 15.8847 8.68792 15.5529 8.89839 15.1518C9.06745 14.8234 9.35728 14.6333 9.71611 14.5607C9.81617 14.54 9.93003 14.5469 10.0266 14.5711C10.2682 14.6333 10.5062 14.7128 10.7443 14.7854C10.8271 14.8096 10.8927 14.7923 10.9513 14.7197C11.5448 13.9834 12.2555 13.3577 12.8766 12.6525C13.4287 12.0302 14.098 11.5462 14.7018 10.9897C15.2884 10.4469 15.9474 10.001 16.5857 9.52737C16.6409 9.48589 16.6892 9.43403 16.7444 9.38909C16.9238 9.23353 17.0446 9.24736 17.1722 9.44095C17.2067 9.49626 17.224 9.5654 17.2551 9.63799C17.1998 9.66565 17.1619 9.68293 17.1274 9.70368C17.0929 9.72788 17.0618 9.75899 17.017 9.79701C17.1239 9.94221 17.2274 10.0805 17.3275 10.2222C17.5656 10.5506 17.5552 10.6924 17.2792 11C17.2689 11.0139 17.262 11.0311 17.2447 11.0692C17.5897 11.1833 17.9417 11.2455 18.3039 11.2939C18.4282 11.4909 18.2039 11.6292 18.2522 11.847C17.4621 11.7467 16.7651 11.4771 16.0612 11.2247C15.9853 11.0346 16.0819 10.879 16.1337 10.7062C16.3787 10.6993 16.6167 10.8894 16.879 10.7269C16.8893 10.4884 16.6788 10.364 16.565 10.1496C16.113 10.4573 15.6955 10.7753 15.2677 11.1176C15.5471 11.4356 15.8094 11.7398 16.075 12.0371C16.289 12.2791 16.5063 12.5176 16.7237 12.7596C16.7996 12.8426 16.7824 12.9221 16.703 12.9843C16.596 13.0708 16.4787 13.1468 16.3545 13.2332C15.8473 12.6525 15.347 12.0855 14.8364 11.4978C14.7018 11.6188 14.5845 11.7225 14.4534 11.8401C14.5362 11.9403 14.6087 12.0371 14.688 12.127C14.8847 12.3517 15.0848 12.5695 15.278 12.7977C15.4057 12.9463 15.3712 13.0846 15.1849 13.171C14.9502 13.2816 14.7053 13.2298 14.4637 13.2125C14.4051 13.209 14.3499 13.1779 14.2912 13.1606C14.1153 13.1122 14.0739 12.967 14.1981 12.8253C14.2429 12.7735 14.3016 12.732 14.3706 12.6697C14.2705 12.5453 14.1808 12.4278 14.0877 12.3171C14.029 12.248 13.9669 12.2653 13.9048 12.3171C13.6495 12.5315 13.3665 12.7147 13.2078 13.0604C13.753 13.5755 14.3085 14.1044 14.8536 14.6229C14.7191 14.7647 14.5983 14.8926 14.4568 15.0447C14.1291 14.7301 13.8082 14.4224 13.508 14.1355C13.3182 14.2772 13.1492 14.4017 12.9629 14.5434M10.4993 15.0965C10.2509 14.9617 10.0059 14.8857 9.73336 14.9029C9.52634 14.9168 9.36763 15.0481 9.33658 15.2486C9.30897 15.4215 9.38833 15.5321 9.5988 15.6151C9.64711 15.6324 9.69886 15.6531 9.75062 15.6531C9.85758 15.6496 9.93003 15.6842 9.93693 15.8363C10.1405 15.5701 10.313 15.342 10.4993 15.0965Z" fill="#231F20"/>
<path d="M57.8238 54.2017C58.093 54.4057 58.3069 54.582 58.5346 54.7341C58.5933 54.7721 58.7002 54.7444 58.7865 54.741C58.8072 54.741 58.8279 54.6995 58.8486 54.696C58.9038 54.6891 58.959 54.696 59.0142 54.696C59.0038 54.7444 59.0107 54.8032 58.9831 54.8378C58.8624 55.0072 58.7382 55.1766 58.5967 55.3356C58.5588 55.3805 58.469 55.3805 58.3621 55.4151C58.3828 55.3079 58.3759 55.2353 58.4069 55.1973C58.5035 55.0798 58.4449 55.0003 58.3586 54.9277C58.193 54.7859 58.024 54.6442 57.8514 54.5128C57.5271 54.2639 57.1959 54.0219 56.8715 53.7696C56.8267 53.735 56.7956 53.6555 56.7991 53.5967C56.806 53.5034 56.8923 53.5103 56.9647 53.5103C57.534 53.5103 58.1068 53.5103 58.6761 53.5103C58.8141 53.5103 58.9521 53.4999 59.1108 53.4446C58.7347 53.1577 58.3621 52.8673 58.0136 52.6011C57.8238 52.608 57.7548 52.8431 57.572 52.7221C57.572 52.6945 57.5651 52.6633 57.5789 52.6461C57.7445 52.4317 57.9135 52.2209 58.0792 52.0031C58.162 51.8959 58.231 51.7818 58.3069 51.6712C58.4276 51.4914 58.5518 51.3117 58.6692 51.1285C58.7485 51.004 58.8279 50.8934 58.9659 50.807C59.0763 50.7378 59.135 50.5753 59.204 50.4509C59.3144 50.2539 59.4213 50.0533 59.5179 49.8494C59.5628 49.7595 59.6145 49.7388 59.7008 49.7699C59.7077 49.7906 59.7215 49.8079 59.7215 49.8217C59.6525 50.1121 59.6594 50.119 59.9354 50.2469C60.101 50.323 60.2598 50.4163 60.4426 50.5131C60.5047 50.406 60.5668 50.3126 60.6186 50.2158C60.6738 50.119 60.7255 50.0153 60.7842 49.9047C60.5703 49.7146 60.3046 49.6212 60.0596 49.4968C60.0286 49.4795 59.9596 49.5106 59.9216 49.5383C59.8664 49.5763 59.8216 49.6316 59.7353 49.718C59.725 49.6178 59.6939 49.5452 59.7181 49.5002C59.8699 49.196 60.032 48.8987 60.1873 48.5945C60.2253 48.5254 60.2701 48.4735 60.3495 48.5012C60.4564 48.5392 60.4392 48.636 60.3978 48.6982C60.2977 48.8469 60.3978 48.9056 60.5013 48.9609C60.9567 49.2029 61.4122 49.4415 61.8676 49.68C61.9884 49.7422 62.1091 49.801 62.1885 49.6143C62.2195 49.5417 62.3058 49.5175 62.3644 49.5797C62.3921 49.6074 62.3886 49.6938 62.3644 49.7388C62.2161 50.0326 62.0574 50.323 61.8987 50.6134C61.8676 50.6652 61.8089 50.7033 61.7227 50.7828C61.7089 50.6791 61.6813 50.6134 61.702 50.5719C61.7744 50.4198 61.702 50.3437 61.5743 50.2815C61.3949 50.1916 61.2189 50.0983 61.0188 49.9946C60.9015 50.202 60.7911 50.406 60.6738 50.6134C60.8808 50.7378 61.0533 50.8554 61.2396 50.9487C61.3397 50.9971 61.4605 51.0144 61.5433 50.8899C61.5709 50.8519 61.6192 50.8277 61.6571 50.8C61.7572 50.8623 61.7503 50.9314 61.7089 51.0109C61.5571 51.284 61.4018 51.5537 61.2638 51.8337C61.212 51.9374 61.1603 51.9858 61.0119 51.9616C61.0395 51.8579 61.0637 51.7645 61.0982 51.6366C60.5668 51.2909 59.9665 51.0282 59.3972 50.7033C59.273 50.807 59.1419 50.9003 59.0245 51.0109C58.9038 51.125 58.9245 51.2114 59.0901 51.3255C59.3627 51.5122 59.6387 51.6989 59.9113 51.8821C60.0631 51.9858 60.2184 52.0826 60.3667 52.1897C60.4875 52.2762 60.5875 52.328 60.7014 52.1759C60.7324 52.1379 60.8153 52.1379 60.8946 52.1483C60.7049 52.5389 60.4461 52.8742 60.2218 53.2303C60.2011 53.2614 60.1286 53.2579 60.0838 53.2683C60.0113 53.1681 60.0562 53.0955 60.0976 53.016C60.1424 52.9261 60.1252 52.8466 60.0355 52.7878C59.5386 52.4525 59.0418 52.1137 58.5415 51.7749C58.369 51.9028 58.2827 52.0618 58.2137 52.2312C58.1689 52.3384 58.1999 52.4283 58.3 52.5043C58.6761 52.7913 59.0452 53.0851 59.4144 53.3789C59.5421 53.4827 59.6767 53.5068 59.825 53.4239C59.8802 53.3928 59.9389 53.3686 59.9975 53.3409L60.0458 53.3789C60.0251 53.4481 60.0217 53.5276 59.9837 53.5794C59.863 53.7385 59.7215 53.8837 59.6007 54.0461C59.5248 54.1533 59.4317 54.181 59.3109 54.181C58.9245 54.174 58.538 54.181 58.1516 54.181C58.0688 54.181 57.9825 54.1879 57.8342 54.1948" fill="#231F20"/>
<path d="M30.6319 5.41706C30.6112 5.25112 30.5905 5.08173 30.5663 4.9158C30.556 4.83975 30.5353 4.76024 30.5249 4.68418C30.5008 4.47331 30.4835 4.45602 30.2731 4.43183C30.2248 4.42491 30.1799 4.40763 30.1178 4.39034C30.2075 4.21404 30.3524 4.19675 30.5008 4.18292C30.6561 4.1691 30.8079 4.15873 30.9804 4.1449C30.9976 4.22441 31.0597 4.32466 30.8941 4.3696C30.7837 4.39726 30.7734 4.48368 30.7872 4.57702C30.8389 4.92963 30.8803 5.28224 30.939 5.63139C30.9769 5.86992 31.039 6.10499 31.0839 6.34352C31.1011 6.42649 31.0942 6.51637 31.0977 6.6028C30.9907 6.68231 30.9148 6.64082 30.8355 6.57168C30.4249 6.19142 30.0143 5.8077 29.6003 5.43089C29.5002 5.33755 29.3898 5.25804 29.2414 5.13359C29.2897 5.42743 29.3277 5.65905 29.3656 5.89066C29.4001 6.11191 29.4312 6.33661 29.4657 6.57168C29.5899 6.58551 29.69 6.59934 29.7935 6.60971C29.8487 6.79639 29.8314 6.82058 29.6658 6.84824C29.3311 6.90009 28.993 6.94158 28.6583 7.00726C28.4065 7.05912 28.158 7.14208 27.9096 7.20776C27.8613 7.22159 27.813 7.22159 27.7612 7.22851C27.7474 7.09945 27.8153 7.00265 27.9648 6.93812C27.8751 6.81713 27.7888 6.70305 27.706 6.58551C27.4645 6.65119 27.2368 6.70996 26.9918 6.77564V7.1732C27.0988 7.18011 27.1919 7.18702 27.2955 7.19739V7.3737C27.0677 7.44629 26.8366 7.51543 26.6088 7.59149C26.3156 7.68828 26.0257 7.78853 25.7325 7.88187C25.5944 7.92681 25.4495 7.96484 25.3081 7.9925C25.2701 7.99941 25.2218 7.96484 25.177 7.95101C25.1908 7.91298 25.1977 7.86113 25.2253 7.84039C25.4599 7.65371 25.4564 7.64334 25.3736 7.38061C25.2701 7.05912 25.1908 6.72725 25.0907 6.40575C25.0355 6.22599 24.9665 6.04968 24.9044 5.87683C24.7733 5.85609 24.6491 5.83881 24.5283 5.81807C24.5214 5.79732 24.5179 5.77313 24.511 5.75238C24.5732 5.70399 24.6353 5.61411 24.6974 5.61411C24.9492 5.60373 25.1563 5.45854 25.3943 5.4136C25.522 5.3894 25.6462 5.35138 25.7773 5.31681C25.8981 5.55534 25.6082 5.52077 25.5772 5.69707C25.7187 6.13956 25.8705 6.627 26.0223 7.11097C26.043 7.17665 26.0637 7.24579 26.0809 7.31147C26.1327 7.50852 26.2569 7.56729 26.4294 7.46358C26.5364 7.3979 26.6192 7.31839 26.6399 7.18011C26.6985 6.82059 26.771 6.46106 26.8262 6.09808C26.8883 5.69707 26.9366 5.29261 26.9987 4.8432C27.085 4.88469 27.1574 4.89852 27.1954 4.94346C27.5922 5.42052 27.9786 5.90449 28.372 6.38501C28.4272 6.45415 28.4893 6.51637 28.5514 6.5786C28.8032 6.8275 28.8515 6.83096 29.169 6.62008C29.1517 6.44032 29.1655 6.23982 29.1103 6.06351C29.0275 5.80078 29.1103 5.52077 28.9758 5.26841C28.9413 5.20618 28.9654 5.11285 28.962 5.03334C28.9551 4.82246 28.886 4.73604 28.6756 4.70147C28.61 4.6911 28.541 4.69455 28.5514 4.61159C28.5583 4.57356 28.6135 4.52516 28.6549 4.51825C28.8757 4.46985 29.1 4.42491 29.3242 4.40071C29.3898 4.3938 29.476 4.43874 29.5313 4.48714C29.8004 4.72567 30.0592 4.97457 30.3248 5.21656C30.4111 5.29607 30.5008 5.37558 30.5905 5.45509C30.6078 5.44817 30.6216 5.4378 30.6388 5.42743M27.1298 5.87683C27.0677 6.12574 26.9987 6.31241 27.0815 6.506C27.1781 6.4818 27.254 6.46797 27.3265 6.44378C27.3955 6.41958 27.4576 6.38501 27.5473 6.34352C27.399 6.17759 27.2816 6.04623 27.1298 5.87683Z" fill="#231F20"/>
<path d="M61.4294 20.7729C61.5502 21.001 61.6537 21.2015 61.7676 21.4159C61.9918 21.2983 62.2092 21.1912 62.4162 21.0667C62.4576 21.0425 62.4749 20.9492 62.4783 20.8904C62.4783 20.8351 62.4473 20.7798 62.43 20.7245C62.5128 20.6553 62.5818 20.6381 62.6336 20.7383C62.8027 21.0633 62.9752 21.3848 63.1408 21.7097C63.1511 21.7305 63.1408 21.7616 63.1408 21.7927C63.0511 21.8515 62.9683 21.8411 62.9234 21.7408C62.8717 21.6233 62.782 21.6371 62.7061 21.6752C62.1747 21.9552 61.6503 22.2456 61.1224 22.5325C61.1155 22.5359 61.112 22.5463 61.1086 22.5532C61.1086 22.5705 61.0982 22.5912 61.1017 22.6051C61.2466 22.9531 61.4996 23.0522 61.8607 22.9024C62.2196 22.7537 62.5784 22.6085 62.9407 22.4564C63.1028 22.3907 63.1477 22.2939 63.1201 22.1038C63.1166 22.0727 63.1201 22.0381 63.1201 22.007C63.265 21.9275 63.3271 22.0278 63.372 22.1176C63.4617 22.3043 63.5479 22.4979 63.6169 22.695C63.6376 22.7468 63.61 22.8298 63.5824 22.8851C63.3616 23.2896 63.1304 23.6871 62.9062 24.0881C62.8924 24.1089 62.8993 24.14 62.8924 24.1642C63.1028 24.1642 63.6376 23.9325 63.786 23.7735C63.7687 23.6836 63.7515 23.5903 63.7239 23.4486C63.8205 23.4693 63.9171 23.4659 63.9309 23.5004C64.0344 23.7182 64.1241 23.9429 64.2138 24.1676C64.2242 24.1953 64.2035 24.2333 64.1897 24.2921C64.1241 24.2644 64.0482 24.261 64.0241 24.2229C63.9344 24.0812 63.8205 24.1123 63.7032 24.1572C63.4479 24.261 63.1891 24.3647 62.9372 24.4753C62.6094 24.617 62.2886 24.7657 61.9608 24.9074C61.9194 24.9247 61.8642 24.9178 61.8021 24.9212C61.7883 24.7346 61.8918 24.6101 61.9504 24.4718C61.9815 24.3992 62.0332 24.337 62.0677 24.2679C62.3162 23.7908 62.568 23.3138 62.8337 22.8021C62.713 22.8332 62.6129 22.8436 62.5232 22.8816C62.2679 22.9888 62.0125 23.0994 61.7607 23.217C61.4812 23.3449 61.4812 23.3483 61.5536 23.6491C61.4018 23.7078 61.3121 23.6871 61.2742 23.5557C61.1017 22.9715 60.7635 22.4703 60.4771 21.9448C60.4254 21.8549 60.4116 21.7892 60.5013 21.727C60.5289 21.7339 60.5496 21.7339 60.56 21.7443C60.7704 21.931 60.7877 21.9379 61.0292 21.8169C61.1983 21.7305 61.3604 21.6268 61.5571 21.5127C61.4398 21.2949 61.3328 21.0944 61.2121 20.8766C60.9912 20.9976 60.7842 21.1048 60.5807 21.2188C60.4047 21.3225 60.4081 21.326 60.4875 21.5369C60.4979 21.5645 60.4806 21.6026 60.4737 21.6752C60.3978 21.6337 60.3184 21.6164 60.2908 21.5714C60.1149 21.2707 59.9527 20.9665 59.7871 20.6588C59.7698 20.6242 59.7871 20.5758 59.7871 20.486C59.8699 20.5171 59.9562 20.524 59.9907 20.5689C60.0804 20.6899 60.1804 20.6761 60.2874 20.6208C60.8015 20.3477 61.3156 20.0711 61.8469 19.7842C61.8262 19.7185 61.8159 19.6597 61.7848 19.6113C61.7434 19.5422 61.7193 19.4731 61.7986 19.4281C61.8814 19.3832 61.9401 19.4212 61.9815 19.5076C62.0643 19.6805 62.154 19.8499 62.2437 20.0193C62.2989 20.1264 62.3576 20.2371 62.4231 20.3373C62.4852 20.4306 62.4852 20.5102 62.4128 20.6104C62.3714 20.5862 62.3403 20.5758 62.3196 20.5516C62.1575 20.3719 62.1575 20.3684 61.9401 20.4825C61.7779 20.5689 61.6192 20.6553 61.4225 20.7625" fill="#231F20"/>
<path d="M50.6127 59.3837C50.9059 59.8988 51.1992 60.4208 51.5063 60.9393C51.5339 60.9877 51.6132 61.0223 51.6754 61.0326C51.7478 61.043 51.8237 61.0188 51.8996 61.0084C51.9479 61.0914 51.9479 61.1502 51.8651 61.1917C51.3959 61.444 50.9611 61.7586 50.4539 61.9349C50.1607 62.0352 49.826 61.8934 49.6673 61.6307C49.5086 61.3645 49.5741 61.1329 49.7604 60.8875C49.5741 60.7561 49.3498 60.7042 49.1635 60.5867C48.9669 60.4622 48.746 60.438 48.5218 60.4208C48.5045 60.2929 48.5804 60.2445 48.6563 60.203C48.7771 60.1338 48.9082 60.0785 49.0255 60.0059C49.1601 59.923 49.2843 59.9264 49.4188 59.9921C49.7156 60.1338 50.0192 60.2687 50.3194 60.4069C50.3401 60.4173 50.3677 60.4104 50.3884 60.4138C50.3953 60.3897 50.4091 60.3689 50.4056 60.3585C50.278 60.1442 50.1469 59.9264 50.0158 59.7155C49.8881 59.7052 49.7673 59.8573 49.6259 59.7052C49.6845 59.6499 49.7328 59.5842 49.7949 59.5496C50.1124 59.3733 50.447 59.2247 50.7541 59.0311C51.0508 58.8444 51.3165 58.6128 51.5925 58.3984C51.6546 58.35 51.7099 58.2913 51.7927 58.3362C51.8617 58.4814 51.703 58.5333 51.6754 58.6439C51.7237 58.6819 51.7651 58.7234 51.8168 58.7545C52.0514 58.9066 52.048 58.9066 52.2585 58.7269C52.324 58.6715 52.3999 58.6231 52.4689 58.5713C52.638 58.4434 52.6483 58.4123 52.5655 58.2221C52.5448 58.1737 52.5207 58.1288 52.4931 58.0735C52.3654 58.0942 52.2447 58.115 52.0894 58.1426C52.1204 58.0493 52.1239 57.9836 52.1549 57.9594C52.3758 57.8004 52.6035 57.6483 52.8554 57.4754C52.8657 57.548 52.883 57.5895 52.8726 57.6137C52.7104 57.8972 52.8554 58.1668 52.9106 58.4365C53.0244 58.9965 53.1452 59.5565 53.259 60.1166C53.2694 60.1615 53.2521 60.2099 53.2487 60.2583C53.1935 60.2514 53.1279 60.2583 53.0796 60.2306C52.5483 59.9299 52.0204 59.6222 51.489 59.318C51.4649 59.3042 51.4407 59.2938 51.42 59.28C51.144 59.1175 50.8749 59.0345 50.6127 59.3768M50.5609 60.5867C50.3504 60.7146 50.1572 60.8045 50.1917 61.0741C50.2159 61.2712 50.2918 61.4371 50.4746 61.5097C50.661 61.5858 50.8438 61.5374 51.0129 61.3749C50.8645 61.1191 50.7231 60.8633 50.5643 60.5867M52.255 59.0034C52.4689 59.1382 52.6449 59.2627 52.8726 59.3387C52.8105 59.114 52.7553 58.9204 52.6932 58.6923C52.5414 58.7995 52.4172 58.8893 52.255 59.0034Z" fill="#231F20"/>
<path d="M9.01567 21.2914C8.89146 21.3675 8.77415 21.4539 8.64303 21.5127C8.49467 21.5818 8.33596 21.6268 8.18414 21.6855C8.07028 21.727 7.96332 21.7477 7.86671 21.6509C7.7632 21.5472 7.80116 21.447 7.85981 21.3398C7.88396 21.2949 7.89777 21.2465 7.92192 21.1808C7.75285 21.1013 7.59414 21.0252 7.42852 20.9492C7.28361 21.2154 7.1525 21.4574 7.00758 21.727C6.93858 21.7097 6.86267 21.6993 6.79712 21.6682C6.5832 21.5749 6.56594 21.5265 6.6798 21.3087C6.83162 21.0252 6.98343 20.7418 7.13525 20.4583C7.35607 20.0435 7.56999 19.6252 7.80461 19.2138C8.07373 18.7436 8.35666 18.2804 8.63958 17.7999C8.78105 17.8621 8.89146 17.9105 9.02257 17.9693C9.00877 18.0695 8.99497 18.1698 8.97771 18.2873C9.37795 18.5501 9.78164 18.8197 10.1922 19.0859C10.3751 19.2034 10.5649 19.3071 10.7477 19.4212C10.8409 19.48 10.8788 19.5595 10.8098 19.6632C10.7443 19.7634 10.6787 19.8637 10.6132 19.964C10.4579 20.0089 10.3682 19.8879 10.2647 19.8222C9.71953 19.4731 9.17783 19.1205 8.60508 18.7506C8.47742 18.9787 8.36011 19.1931 8.23245 19.4178C8.90871 19.843 9.62982 20.123 10.2888 20.5447C10.2026 20.7003 10.1301 20.8282 10.0439 20.9768C9.97831 20.9665 9.89205 20.9768 9.82994 20.9423C9.32275 20.6726 8.82245 20.3926 8.31525 20.123C8.2152 20.0677 8.10824 20.0331 7.99783 19.9847C7.82876 20.0607 7.82876 20.2543 7.70455 20.3961C7.95297 20.5344 8.19104 20.6657 8.42566 20.7936C8.54643 20.8593 8.66719 20.9354 8.7983 20.9872C8.92251 21.0322 8.97426 21.122 9.02257 21.2949" fill="#231F20"/>
<path d="M61.5329 45.9223C61.5122 45.8013 61.5157 45.7321 61.6364 45.6976C62.0194 45.5904 62.3955 45.4694 62.775 45.3484C63.0166 45.2724 63.2546 45.1963 63.4961 45.1168C63.5514 45.0995 63.5997 45.0684 63.6894 45.0235C63.5617 44.9682 63.472 44.9301 63.3788 44.8921C63.1201 44.7918 62.8578 44.6951 62.5991 44.5913C62.3748 44.5049 62.3748 44.5084 62.2161 44.6985C62.1816 44.74 62.1022 44.7504 62.0436 44.7746C62.0332 44.7123 61.9987 44.6363 62.016 44.5844C62.0919 44.3632 62.1954 44.1489 62.2713 43.9242C62.3955 43.5508 62.5059 43.1705 62.6301 42.7626C62.6646 42.7626 62.7267 42.7557 62.8095 42.7488V43.0184C63.0649 43.0945 63.2684 42.9769 63.3167 42.7315C63.3443 42.5863 63.3857 42.4446 63.4306 42.2752C63.3409 42.2026 63.2408 42.1231 63.1753 42.0712C62.9683 42.0608 63.0338 42.4446 62.7509 42.2544C62.7992 42.1196 62.8509 41.9848 62.8992 41.8465C62.9406 41.7152 62.9786 41.5838 63.0166 41.4455C63.127 41.4213 63.2201 41.4317 63.2098 41.5527C63.196 41.7221 63.2995 41.8119 63.403 41.9053C63.6756 42.1507 63.9516 42.3927 64.2345 42.6312C64.476 42.8352 64.7245 43.0253 64.966 43.2293C65.0074 43.2639 65.035 43.3468 65.0281 43.4022C65.0281 43.4298 64.9349 43.4713 64.8797 43.4713C64.4588 43.4713 64.0482 43.5577 63.6376 43.6338C63.4064 43.6787 63.1718 43.7133 62.9372 43.734C62.5232 43.772 62.4749 43.8135 62.4749 44.2595C62.6508 44.3321 62.8406 44.4081 63.0304 44.4842C63.3202 44.5983 63.61 44.7193 63.9067 44.8195C64.2173 44.9267 64.2656 44.9059 64.4588 44.6709C64.5727 44.6778 64.5864 44.7573 64.5588 44.8368C64.4829 45.0546 64.3898 45.2689 64.3173 45.4902C64.2863 45.58 64.2311 45.6111 64.1517 45.6353C63.7618 45.7529 63.3754 45.8739 62.9855 45.9914C62.8992 46.0191 62.8095 46.0364 62.7164 46.109C63.0028 46.2196 63.2857 46.3337 63.5755 46.4304C63.6169 46.4443 63.6928 46.3821 63.7411 46.3406C63.8101 46.2853 63.8481 46.1435 63.9619 46.223C63.9964 46.2472 63.9757 46.3855 63.9516 46.4581C63.8929 46.6275 63.8205 46.7969 63.7377 46.9594C63.717 47.0008 63.6514 47.0216 63.6066 47.0527C63.5824 47.0043 63.5272 46.9386 63.541 46.9075C63.6066 46.7692 63.5341 46.7139 63.4237 46.669C63.2477 46.5964 63.0752 46.5169 62.8958 46.4477C62.4438 46.2714 61.9918 46.102 61.5329 45.9257M64.1138 42.9009C64.1207 42.8836 64.131 42.8663 64.1379 42.849C63.9861 42.7211 63.8308 42.5967 63.6549 42.448C63.6031 42.6416 63.5617 42.7937 63.5134 42.9666C63.7411 42.9424 63.9274 42.9216 64.1138 42.9009Z" fill="#231F20"/>
<path d="M33.6371 4.06539C33.6406 3.99971 33.644 3.95131 33.6475 3.89946C33.682 3.88563 33.7062 3.8718 33.7269 3.86834C33.8925 3.86489 34.0615 3.87871 34.2271 3.85797C34.4583 3.83377 34.5963 3.93403 34.7274 4.11379C34.9655 4.44566 35.2312 4.76024 35.4934 5.08865C35.5659 4.90197 35.5728 4.37997 35.5107 4.12416C35.4658 4.11724 35.4141 4.09996 35.3658 4.0965C35.2795 4.09305 35.2243 4.05156 35.245 3.96859C35.2553 3.92711 35.3209 3.8718 35.3658 3.86834C35.6107 3.85797 35.8522 3.86489 36.1041 3.86489C36.111 3.94094 36.1145 3.99279 36.1214 4.06539C35.8592 4.07576 35.8557 4.25207 35.8557 4.44911C35.8626 5.00223 35.8557 5.55534 35.8557 6.10845V6.3539C35.7177 6.43686 35.6556 6.36773 35.5935 6.28476C35.2174 5.80424 34.8413 5.32372 34.4583 4.84321C34.4066 4.77752 34.3341 4.72221 34.2686 4.65999C34.2064 4.83629 34.1892 5.70399 34.2375 6.02203C34.3134 6.16377 34.5963 6.02549 34.5549 6.30896C34.4859 6.31587 34.4169 6.32624 34.3514 6.32279C33.9477 6.3055 33.5509 6.36773 33.1507 6.40575C32.8988 6.43341 32.6435 6.41612 32.3881 6.40921C32.3502 6.40921 32.3122 6.36081 32.2708 6.33316C32.3019 6.29859 32.3295 6.25019 32.3674 6.23636C32.5779 6.16031 32.5883 6.16376 32.5813 5.95289C32.5744 5.72819 32.5468 5.50003 32.5296 5.27533C32.502 4.92963 32.4744 4.58048 32.4502 4.23824C32.3226 4.20367 32.2191 4.17256 32.1225 4.1449C32.1121 3.98242 32.1949 3.94785 32.3019 3.94785C32.433 3.94785 32.5641 3.95477 32.6987 3.94785C32.8884 3.93748 33.0782 3.91674 33.268 3.896C33.406 3.87871 33.4198 3.88217 33.475 4.05848C33.3749 4.09996 33.2749 4.14144 33.1645 4.18984C33.2128 4.84321 33.2611 5.4862 33.3059 6.12228C33.5543 6.22599 33.7407 6.10845 33.9546 6.04277C33.9615 5.96672 33.9718 5.89067 33.9718 5.81461C33.9718 5.36521 33.9718 4.91926 33.9718 4.47331C33.9718 4.1933 33.9373 4.14836 33.644 4.06539" fill="#231F20"/>
<path d="M19.5909 8.10312C19.5426 7.9925 19.5736 7.93719 19.6737 7.88879C19.8704 7.79545 20.0567 7.68138 20.2533 7.59149C20.3085 7.5673 20.3914 7.57075 20.4466 7.59841C20.795 7.75397 21.1401 7.91991 21.4886 8.08238C21.5886 8.12732 21.6887 8.16535 21.8474 8.22757C21.6956 7.91991 21.5748 7.66409 21.4437 7.41519C21.3919 7.32185 21.3057 7.28382 21.1987 7.33914C21.1504 7.36333 21.0918 7.37025 21.0228 7.39099C20.9917 7.25617 21.0262 7.18703 21.1297 7.14209C21.3402 7.04184 21.5472 6.93467 21.7646 6.83096C21.8646 6.91393 21.8508 7.00035 21.7577 7.06604C21.6369 7.149 21.6645 7.23888 21.7128 7.33914C21.8474 7.62261 21.982 7.90262 22.1234 8.18263C22.2787 8.4903 22.4443 8.79797 22.5996 9.10564C22.6099 9.12638 22.5996 9.1575 22.5996 9.19898C22.4788 9.24392 22.3718 9.20935 22.258 9.1575C21.7128 8.91205 21.1642 8.67007 20.6156 8.42808C20.5466 8.39697 20.4776 8.37277 20.3741 8.33128C20.588 8.74612 20.7847 9.12293 20.9745 9.50319C21.0228 9.59999 21.0987 9.62419 21.1884 9.61036C21.2643 9.59999 21.3367 9.57579 21.4161 9.55505C21.4782 9.66221 21.4713 9.74172 21.354 9.79358C21.2677 9.8316 21.1746 9.86272 21.0952 9.91457C20.6363 10.1911 20.1843 10.4746 19.7254 10.7546C19.6599 10.7926 19.5943 10.8272 19.5253 10.8652C19.4356 10.7546 19.4839 10.6889 19.5495 10.6232C19.6875 10.485 19.684 10.4884 19.5874 10.3329C19.3321 9.9284 19.0802 9.51702 18.8249 9.11256C18.7697 9.02613 18.7007 8.94662 18.6386 8.86711C18.5109 8.89823 18.404 8.92588 18.2867 8.95699C18.2384 8.85329 18.2453 8.78069 18.3419 8.72538C18.6351 8.54907 18.925 8.37277 19.2148 8.18955C19.2976 8.13769 19.3701 8.12387 19.4805 8.21029C19.4046 8.29326 19.339 8.3624 19.2424 8.46611C19.5564 9.0365 19.9187 9.58962 20.2844 10.1462C20.4052 10.0874 20.4949 10.0563 20.5673 10.001C20.6432 9.94568 20.7019 9.86617 20.7812 9.77975C20.7433 9.6795 20.7088 9.57233 20.657 9.47208C20.4638 9.07453 20.2637 8.68044 20.067 8.28634C19.9877 8.13078 19.8876 8.08584 19.7082 8.12041C19.684 8.12387 19.6564 8.12387 19.6323 8.12387C19.6219 8.12387 19.615 8.12041 19.5874 8.1135" fill="#231F20"/>
<path d="M22.3477 6.82751C22.2304 6.83443 22.1614 6.84825 22.0924 6.83788C22.0475 6.83097 22.0061 6.7964 21.9647 6.7722C21.9923 6.73417 22.013 6.67886 22.0475 6.66158C22.3098 6.5475 22.5754 6.43687 22.8411 6.33317C23.0171 6.26748 23.1999 6.21563 23.3794 6.16377C23.9245 6.00821 24.4179 6.35736 24.6353 6.78948C24.8216 7.15938 24.8561 7.55347 24.656 7.94065C24.5318 8.17573 24.3282 8.34166 24.1039 8.45228C23.7175 8.64587 23.3069 8.79106 22.9067 8.957C22.8929 8.96391 22.8756 8.95008 22.8515 8.94317C22.7859 8.84983 22.8446 8.76687 22.917 8.72884C23.0516 8.65624 23.0516 8.55945 23.0033 8.44191C22.8618 8.09622 22.7169 7.75398 22.5754 7.40482C22.4961 7.21469 22.4236 7.02456 22.3443 6.82751M22.9722 6.5717C23.0481 6.76529 23.1137 6.94505 23.1861 7.12135C23.3276 7.47742 23.4691 7.83349 23.6209 8.1861C23.6933 8.35894 23.7347 8.35894 23.9038 8.27943C24.1246 8.17573 24.1729 7.97868 24.1557 7.77472C24.1246 7.39791 24.0108 7.03839 23.7761 6.73417C23.5588 6.4507 23.2931 6.39885 22.9722 6.5717Z" fill="#231F20"/>
<path d="M61.4915 46.586C61.8089 46.7312 62.116 46.8764 62.4231 47.0147C62.637 47.1115 62.8544 47.1979 63.0683 47.2981C63.1994 47.3604 63.2995 47.3742 63.365 47.2221C63.3685 47.2152 63.3754 47.2083 63.3788 47.2013C63.4202 47.1322 63.4823 47.0976 63.5548 47.1357C63.6411 47.1806 63.6066 47.2532 63.5755 47.3189C63.4754 47.5401 63.3719 47.7579 63.265 47.9792C63.1925 48.1278 63.1235 48.2765 63.0442 48.4182C62.8923 48.6982 62.6612 48.8849 62.3679 49.0059C62.0332 49.1442 61.7261 49.0439 61.4363 48.8987C60.9947 48.6775 60.6772 48.2453 60.7497 47.7648C60.7877 47.5194 60.8981 47.2878 60.9878 47.0527C61.0706 46.8349 61.1637 46.6206 61.2569 46.4062C61.281 46.3509 61.3018 46.2852 61.3466 46.2507C61.388 46.2196 61.4536 46.223 61.5088 46.2092C61.5157 46.2541 61.5295 46.3025 61.526 46.3475C61.5191 46.4235 61.4984 46.4996 61.4846 46.586M62.9683 48.0034C62.8958 47.9619 62.8268 47.9169 62.7474 47.8824C62.399 47.7233 62.0505 47.5712 61.6985 47.4157C61.5778 47.3638 61.457 47.3189 61.3363 47.2636C61.2224 47.2117 61.1672 47.2428 61.1189 47.3604C61.0257 47.6024 61.0913 47.8443 61.3397 48.0206C61.5881 48.2004 61.8676 48.3145 62.1643 48.394C62.5439 48.4943 62.7957 48.3871 62.9648 48.0034" fill="#231F20"/>
<path d="M63.3754 31.3132C63.3305 30.6218 63.8964 30.1205 64.4312 30.0306C64.7693 29.9753 65.0522 30.0514 65.3248 30.2C65.5594 30.3279 65.7319 30.5319 65.8113 30.7946C65.9528 31.2579 65.9942 31.7245 65.6526 32.1221C65.3248 32.5024 64.8935 32.6994 64.3898 32.5992C63.7963 32.4816 63.403 31.9734 63.3788 31.3581C63.3788 31.3235 63.3719 31.289 63.3754 31.3097M64.4036 31.9181C64.7106 31.8939 65.0833 31.8213 65.3421 31.6934C65.4249 31.6519 65.5111 31.5932 65.5698 31.524C65.7733 31.2855 65.6422 30.8465 65.3421 30.7808C64.8452 30.6736 64.3518 30.722 63.8929 30.9467C63.7135 31.0331 63.6134 31.1887 63.6238 31.4134C63.6341 31.6277 63.7342 31.766 63.924 31.8282C64.0792 31.8801 64.2449 31.8905 64.4036 31.9216" fill="#231F20"/>
<path d="M63.5652 27.5001C62.8786 27.5001 62.2334 26.8398 62.2679 26.1208C62.3024 25.4329 62.8337 24.9247 63.5824 24.8798C63.9137 24.8625 64.1897 25.0111 64.4312 25.2254C64.7486 25.5055 64.8729 25.8996 64.866 26.2798C64.8522 26.909 64.3104 27.4621 63.5652 27.4967M63.1442 26.8606C63.5686 26.7707 63.9723 26.7016 64.3242 26.4734C64.3898 26.4319 64.4485 26.3732 64.4933 26.3109C64.6279 26.1277 64.6244 25.865 64.4657 25.706C64.3208 25.5608 64.1276 25.4847 63.9171 25.5193C63.7204 25.5504 63.5238 25.6057 63.334 25.6645C63.0925 25.7405 62.8544 25.8235 62.6819 26.0309C62.4852 26.266 62.5301 26.629 62.7854 26.7534C62.8993 26.8087 63.0338 26.8295 63.1373 26.8606" fill="#231F20"/>
<path d="M52.9692 9.87308C53.6351 9.87308 54.3183 10.5368 54.301 11.1867C54.2838 11.8816 53.6765 12.4727 53.0106 12.4831C52.4551 12.49 51.6788 11.9265 51.6754 11.1833C51.6754 10.5437 52.2654 9.84888 52.9658 9.87308M53.3453 10.2603C53.1866 10.2395 53.0417 10.3121 52.9244 10.4158C52.6207 10.6855 52.3585 10.9862 52.2136 11.3769C52.1066 11.6638 52.2136 11.9231 52.4551 12.0371C52.6449 12.127 52.7967 12.0683 52.9485 11.9784C53.3315 11.7502 53.5765 11.3976 53.7559 11.0035C53.8042 10.8998 53.7973 10.765 53.7904 10.644C53.7697 10.3813 53.6282 10.2603 53.3488 10.2568" fill="#231F20"/>
<path d="M63.8826 34.5765C64.062 34.5765 64.2035 34.5765 64.3415 34.5765C64.4657 34.5765 64.5451 34.542 64.5451 34.4002C64.5451 34.3207 64.583 34.2481 64.6658 34.2723C64.7176 34.2861 64.7832 34.3622 64.7866 34.4141C64.797 34.7459 64.797 35.0812 64.79 35.4131C64.79 35.4615 64.7348 35.5099 64.7072 35.5583C64.652 35.5237 64.5554 35.4926 64.5554 35.4546C64.5416 35.2645 64.4278 35.2506 64.2829 35.2645C64.1862 35.2714 64.0896 35.2575 63.993 35.2645C63.8516 35.2783 63.7757 35.2126 63.7446 35.0882C63.6894 34.8704 63.6273 34.656 63.5962 34.4348C63.5134 33.8506 63.786 33.2283 64.3105 32.9967C64.5002 32.9103 64.69 32.8238 64.9108 32.855C65.4698 32.9345 65.9735 33.2594 66.1184 33.9301C66.184 34.2377 66.1391 34.5178 66.0425 34.8012C66.0115 34.8911 65.9977 34.9637 66.0874 35.0328C66.1322 35.0674 66.1495 35.14 66.2047 35.2403C65.8458 35.2575 65.5457 35.2541 65.2524 35.2437C65.1799 35.1366 65.2317 35.0882 65.311 35.0432C65.4249 34.981 65.5457 34.9222 65.6423 34.8393C66.008 34.5247 65.9287 33.8713 65.4801 33.7192C65.2248 33.6328 64.9419 33.5222 64.6451 33.6328C64.5002 33.6846 64.3381 33.6846 64.1931 33.7399C63.9758 33.8229 63.8654 33.9888 63.8792 34.2308C63.8826 34.3345 63.8792 34.4382 63.8792 34.58" fill="#231F20"/>
<path d="M63.4099 40.564C63.6065 40.602 63.7756 40.6366 63.9688 40.6746C64.0102 40.602 64.0516 40.5225 64.1068 40.4257C64.1655 40.4326 64.2311 40.443 64.2966 40.4499C64.2621 40.64 64.231 40.806 64.2069 40.9754C64.1827 41.1378 64.1655 41.3038 64.1482 41.4662C64.131 41.6253 64.1344 41.6253 63.9136 41.6149C63.9067 41.5769 63.8964 41.5354 63.8964 41.4939C63.8998 41.3729 63.8446 41.328 63.7239 41.3176C63.5789 41.3072 63.434 41.2727 63.2891 41.2485C63.1925 41.2312 63.1718 41.1655 63.158 41.0791C63.1166 40.7852 63.0993 40.4983 63.1477 40.1941C63.2029 39.8553 63.334 39.5822 63.572 39.3506C64.0309 38.8977 64.6934 38.9081 65.1661 39.278C65.7009 39.6997 65.8527 40.322 65.5422 40.9581C65.4904 41.0687 65.4456 41.1793 65.3973 41.2899C65.4456 41.3694 65.4973 41.4524 65.556 41.5527C65.204 41.6495 64.9211 41.4766 64.6209 41.4662C64.5761 41.2865 64.5864 41.2485 64.7348 41.2381C64.9694 41.2243 65.1212 41.0929 65.2592 40.927C65.449 40.6953 65.4352 40.2667 65.2178 40.0627C65.1247 39.9763 65.0039 39.9072 64.8866 39.8657C64.5416 39.7481 64.1793 39.755 63.8239 39.7862C63.5927 39.8069 63.4237 40.0281 63.4099 40.2632C63.403 40.36 63.4099 40.4534 63.4099 40.5605" fill="#231F20"/>
<path d="M49.9019 9.96643C49.8777 9.66913 50.1434 9.41677 49.8191 9.20244C49.6983 9.42023 49.5845 9.62073 49.4775 9.82815C49.4292 9.92149 49.4706 9.98717 49.5638 10.039C49.8846 10.2222 50.1952 10.2845 50.5091 10.0287C50.5471 9.99754 50.5988 9.98371 50.6472 9.95951C50.7196 10.039 50.7162 10.1116 50.6644 10.1773C50.554 10.3225 50.4367 10.4642 50.3228 10.6094C50.2573 10.6958 50.1917 10.6993 50.0986 10.6474C49.5983 10.364 49.098 10.084 48.5908 9.81432C48.4907 9.75901 48.4148 9.71061 48.4217 9.54468C48.5045 9.56196 48.5735 9.57233 48.6425 9.59308C48.7357 9.62073 48.815 9.62765 48.8668 9.52739C49.1532 8.99848 49.443 8.46956 49.7397 7.92336C49.6811 7.87151 49.6086 7.83348 49.5707 7.77126C49.5431 7.72977 49.5534 7.66064 49.5465 7.60187C49.6017 7.60187 49.6638 7.58458 49.7052 7.60878C50.1193 7.83348 50.5264 8.06856 50.937 8.29672C51.0646 8.36931 51.1958 8.44191 51.3545 8.52833C51.3372 8.58364 51.3234 8.65278 51.2958 8.71847C51.2406 8.836 51.182 8.95008 51.1164 9.06416C51.0646 9.16096 50.9956 9.24047 50.8542 9.1817C50.8197 8.98119 50.9818 8.75304 50.7921 8.56636C50.661 8.43845 50.5126 8.33129 50.3297 8.29672C50.2055 8.51105 50.0882 8.71501 49.9674 8.91551C50.1193 9.01922 50.209 9.01922 50.3366 8.91206C50.3849 8.87403 50.4194 8.82217 50.4608 8.77723C50.5298 8.70118 50.6057 8.68044 50.6955 8.77032C50.5057 9.11947 50.3194 9.47208 50.1227 9.81432C50.0917 9.86963 50.0088 9.89383 49.9019 9.96643Z" fill="#231F20"/>
<path d="M54.7599 59.1832C54.5495 59.2108 54.4839 59.0449 54.3977 58.9412C54.2872 58.8029 54.1009 58.6992 54.0837 58.4607C54.1596 58.4676 54.2217 58.4538 54.2596 58.478C54.4287 58.5886 54.615 58.5575 54.7979 58.5575C55.2499 58.5575 55.5363 58.1081 55.3603 57.6932C55.2257 57.3821 55.0256 57.1297 54.7599 56.9154C54.4322 56.6423 53.9802 56.6319 53.7214 57.0364C53.7076 57.0571 53.6903 57.0813 53.6696 57.1125C53.8042 57.2576 53.9388 57.4063 54.0802 57.5619C54.1768 57.5135 54.2665 57.4685 54.3666 57.4201C54.4253 57.5169 54.4287 57.5895 54.3459 57.6621C54.1078 57.8695 53.8767 58.0804 53.6351 58.2878C53.5937 58.3224 53.5316 58.3362 53.4247 58.3812C53.4385 58.2774 53.4247 58.1979 53.4557 58.1634C53.5799 58.0355 53.5144 57.9456 53.4212 57.8488C53.3557 57.7796 53.2901 57.707 53.2245 57.6379C53.1383 57.5515 53.1141 57.4581 53.1866 57.3544C53.3039 57.185 53.4109 56.9984 53.5523 56.8463C53.7697 56.6077 54.0147 56.4141 54.3355 56.2966C54.86 56.103 55.4534 56.4591 55.6881 56.8013C56.0262 57.2888 55.9779 58.0942 55.488 58.4814C55.3258 58.6093 55.1533 58.7372 54.9704 58.834C54.7565 58.9481 54.7496 58.9343 54.7634 59.1797" fill="#231F20"/>
<path d="M58.8658 15.4319C58.8348 15.3212 58.8037 15.2106 58.7727 15.1035C58.7899 15.0896 58.8106 15.0758 58.8279 15.0654C58.8865 15.1035 58.9659 15.1346 59.0073 15.1864C59.3592 15.6393 59.7043 16.0991 60.0562 16.5554C60.1286 16.6487 60.1252 16.7248 60.0286 16.7974C59.9113 16.8872 59.7905 16.9737 59.6767 17.0636C59.587 17.1327 59.5076 17.1534 59.4317 17.0359C59.4903 16.863 59.7146 16.7386 59.6215 16.5208C59.549 16.348 59.4455 16.1889 59.3351 15.9919C59.097 16.1786 58.8934 16.3341 58.6761 16.5035C58.9314 16.7801 59.1522 16.4862 59.4213 16.4655C59.3937 16.5519 59.3937 16.6349 59.3523 16.6695C59.028 16.9322 58.7002 17.1845 58.3517 17.4542C58.3 17.3332 58.2931 17.2571 58.3724 17.1742C58.4345 17.105 58.4794 17.0186 58.5208 16.9322C58.5622 16.8423 58.5415 16.7628 58.4207 16.6971C58.2344 16.8458 58.0378 17.0013 57.8445 17.1569C57.8963 17.4196 58.0654 17.5683 58.2689 17.6789C58.4759 17.7861 58.6899 17.7377 58.9072 17.6547C58.9693 17.748 58.9693 17.8206 58.8727 17.8759C58.7209 17.9624 58.5691 18.0488 58.4242 18.1456C58.3172 18.2147 58.2448 18.1836 58.1758 18.0972C57.9964 17.869 57.8204 17.6443 57.641 17.4162C57.4547 17.1845 57.2649 16.9564 57.0855 16.7213C57.0372 16.6591 57.0165 16.5796 56.9854 16.507C56.9992 16.4897 57.0165 16.4724 57.0337 16.4551C57.0889 16.4759 57.1683 16.4828 57.1959 16.5243C57.2959 16.666 57.3994 16.628 57.5099 16.5519C57.5961 16.4932 57.6789 16.424 57.7583 16.3618C58.055 16.1336 58.3517 15.9055 58.6485 15.6773C58.7382 15.6082 58.8279 15.539 58.9176 15.4664L58.8727 15.425L58.8658 15.4319Z" fill="#231F20"/>
<path d="M39.9478 66.5085C39.5682 66.4117 39.4371 66.0694 39.1335 65.945C38.8264 66.0487 38.6849 66.4289 38.2916 66.5361C38.3986 66.1386 38.4917 65.7894 38.5883 65.4299C38.3882 65.2536 38.1777 65.0773 37.9811 64.8941C37.9328 64.8491 37.919 64.7731 37.8776 64.6866H38.7953C38.8195 64.5829 38.8402 64.4688 38.8678 64.3548C38.9161 64.1715 38.961 63.9849 39.0196 63.8051C39.0334 63.7602 39.0886 63.7049 39.1369 63.6945C39.2232 63.6737 39.2508 63.7429 39.2646 63.8224C39.3267 64.1093 39.3923 64.3928 39.4578 64.6866H40.3445C40.3997 64.7903 40.3445 64.8491 40.2617 64.9182C40.0651 65.0773 39.8787 65.2501 39.6786 65.423C39.7649 65.7756 39.8511 66.1247 39.9478 66.5119" fill="#231F20"/>
<path d="M31.2944 63.7049C31.4151 63.6841 31.491 63.7049 31.5152 63.8293C31.567 64.1093 31.6222 64.3894 31.6808 64.6763H32.5572C32.6055 64.7835 32.5848 64.8457 32.502 64.9114C32.3122 65.0635 32.1328 65.2329 31.9327 65.4092C31.9154 65.7791 32.1915 66.1109 32.1535 66.5431C31.8361 66.3737 31.6567 66.0867 31.3703 65.9277C31.077 66.0798 30.9252 66.4393 30.525 66.5223C30.6354 66.149 30.7389 65.8033 30.8389 65.4645C30.6285 65.181 30.2834 65.0324 30.0764 64.6936H31.0391C31.1219 64.3755 31.2081 64.0402 31.2978 63.7083" fill="#231F20"/>
<path d="M26.7986 64.6728C26.5847 64.4965 26.3707 64.3271 26.1706 64.1439C26.1223 64.1024 26.112 64.0195 26.0706 63.9192H26.9849C27.0746 63.5977 27.1643 63.2831 27.254 62.9547C27.3506 62.9132 27.43 62.934 27.461 63.055C27.5266 63.335 27.5852 63.615 27.6508 63.9192C27.8854 63.933 28.1166 63.9503 28.3512 63.9054C28.4271 63.8916 28.5237 63.8708 28.5548 63.9711C28.5789 64.0506 28.5341 64.1093 28.4582 64.1647C28.2891 64.2891 28.1407 64.4378 27.9751 64.5691C27.8716 64.6486 27.8751 64.7489 27.9061 64.8526C27.982 65.1084 28.0614 65.3642 28.1373 65.6235C28.1442 65.6442 28.1304 65.6754 28.1269 65.7065C28.0338 65.7583 27.9613 65.7134 27.8958 65.6512C27.7164 65.4852 27.5369 65.3193 27.3506 65.1499C27.0573 65.3297 26.8607 65.6304 26.5053 65.7756C26.4984 65.5474 26.6019 65.385 26.6399 65.2087C26.6813 65.0324 26.7399 64.863 26.7986 64.6659" fill="#231F20"/>
<path d="M35.2139 66.1904C35.0173 66.3702 34.8413 66.5258 34.6722 66.6917C34.586 66.7747 34.5101 66.8265 34.3962 66.7366C34.4894 66.4048 34.5825 66.0729 34.6688 65.7618C34.4756 65.4679 34.1374 65.34 33.9511 64.9943H34.8654C34.9345 64.7385 34.9966 64.5034 35.0621 64.2718C35.0828 64.2061 35.1035 64.137 35.1346 64.0748C35.1518 64.0402 35.2036 63.9883 35.2208 63.9953C35.2622 64.0091 35.3105 64.0506 35.3209 64.0886C35.4037 64.3721 35.4761 64.659 35.5624 64.9805H36.4974C36.4284 65.098 36.4043 65.1706 36.3525 65.2156C36.1662 65.385 35.9661 65.5405 35.7625 65.7134C35.8522 66.0591 35.9419 66.3875 36.0351 66.7366C35.9454 66.8092 35.8729 66.7816 35.7832 66.6951C35.6107 66.5257 35.4209 66.3702 35.2174 66.187" fill="#231F20"/>
<path d="M43.474 64.7039C43.5775 65.0635 43.6741 65.3953 43.7742 65.7341C43.6603 65.8378 43.5775 65.7514 43.5016 65.6857C43.3877 65.5889 43.2877 65.4783 43.1773 65.378C43.1083 65.3124 43.0324 65.2571 42.953 65.1914C42.6735 65.3746 42.4769 65.6408 42.1387 65.8102C42.1663 65.3988 42.3561 65.0669 42.3906 64.7143C42.1594 64.4965 41.9352 64.2926 41.7178 64.0817C41.6971 64.0644 41.704 64.016 41.6971 63.978H42.6218C42.6942 63.6565 42.7667 63.3419 42.8426 63.0031H43.0289C43.1152 63.3315 43.198 63.653 43.2842 63.978H44.1503C44.2331 64.1059 44.133 64.1543 44.064 64.213C43.8777 64.3686 43.6879 64.5276 43.4774 64.7039" fill="#231F20"/>
<path d="M44.8472 5.48274C45.2336 5.57954 45.6097 5.72473 45.9789 5.88721C46.0238 5.90795 46.0479 5.97018 46.1238 6.06351C45.9513 6.04969 45.8443 6.04277 45.7063 6.0324C45.6615 6.13957 45.6132 6.2571 45.5683 6.3781C45.4338 6.73416 45.2957 7.09369 45.1646 7.44975C45.0749 7.6952 45.1025 7.83693 45.2543 7.94064C45.4579 8.07892 45.7374 8.06855 45.8995 7.90262C45.9513 7.84731 45.9962 7.77817 46.0238 7.70903C46.179 7.32185 46.3205 6.92775 46.4792 6.54057C46.531 6.41267 46.5206 6.31587 46.3895 6.26056C46.2894 6.21908 46.2618 6.15339 46.2963 6.03931C46.5827 6.0808 46.838 6.19488 47.0934 6.31587C47.1762 6.3539 47.19 6.40575 47.1313 6.49909C47.0899 6.49563 47.0451 6.48872 46.9967 6.48526C46.8656 6.46798 46.7932 6.50946 46.7449 6.64774C46.6172 7.00726 46.4758 7.35987 46.3274 7.71248C46.2273 7.94756 46.0859 8.14115 45.8305 8.25177C45.6822 8.31745 45.5304 8.33128 45.3993 8.30017C45.0335 8.21029 44.6781 8.08929 44.5125 7.69174C44.4573 7.55346 44.4401 7.42556 44.4918 7.28728C44.654 6.83787 44.8127 6.38847 44.9887 5.94598C45.0404 5.81461 45.0439 5.73164 44.9059 5.66942C44.8334 5.63831 44.7989 5.583 44.8541 5.47583" fill="#231F20"/>
<path d="M54.2424 13.4614C54.3218 13.5755 54.4908 13.6342 54.3563 13.8313C54.2424 13.7449 54.1251 13.6619 54.0147 13.572C53.8249 13.4199 53.6386 13.2609 53.4488 13.1053C53.3488 13.0224 53.3488 13.0224 53.3971 12.8357C53.4385 12.8564 53.473 12.8806 53.5109 12.8979C53.6938 12.9843 53.7318 12.974 53.8663 12.8115C54.1838 12.4381 54.4977 12.0648 54.8117 11.688C54.9532 11.5186 54.9497 11.5186 54.791 11.3112C54.7634 11.2731 54.7669 11.2144 54.7531 11.166C54.8807 11.083 54.9566 11.1556 55.036 11.2247C55.4845 11.6154 55.9365 12.0026 56.4058 12.4105C56.3954 12.4451 56.392 12.5073 56.3609 12.5557C56.2712 12.6836 56.1642 12.8011 56.0676 12.9256C56.0055 13.0051 55.94 13.0396 55.8261 12.9671C55.8399 12.9152 55.8434 12.8564 55.871 12.808C56.009 12.5764 55.9227 12.3863 55.7675 12.2134C55.6881 12.1236 55.5846 12.051 55.4707 11.9507C55.2982 12.1581 55.136 12.3586 54.9739 12.5557C55.1222 12.694 55.3189 12.7147 55.4673 12.611C55.5363 12.5626 55.6087 12.4589 55.6881 12.5453C55.7744 12.6386 55.6812 12.7112 55.6156 12.7873C55.4259 13.0016 55.243 13.2263 55.0532 13.4441C55.0291 13.4718 55.0084 13.5029 54.9773 13.5167C54.929 13.5375 54.8738 13.5409 54.8221 13.5513C54.8221 13.5029 54.8083 13.4545 54.8221 13.4095C54.8359 13.3611 54.8704 13.3162 54.8911 13.2713C54.9704 13.1019 54.9635 12.9498 54.791 12.7977C54.5943 13.0051 54.3804 13.1918 54.239 13.4649" fill="#231F20"/>
<path d="M36.3249 6.44723C36.3076 6.34006 36.2904 6.28475 36.2869 6.22598C36.2835 6.00819 36.2869 5.78695 36.2869 5.56916C36.2869 5.43434 36.3456 5.37557 36.5009 5.41014C36.5457 5.5415 36.5837 5.68324 36.6354 5.81806C36.7424 6.10153 37.0943 6.27092 37.3565 6.17067C37.529 6.10499 37.5877 5.98054 37.498 5.82497C37.4462 5.73855 37.3703 5.6625 37.2875 5.60027C37.1461 5.49656 36.9839 5.42397 36.8493 5.3168C36.7079 5.20272 36.5802 5.07136 36.4664 4.92962C36.3697 4.80863 36.349 4.64961 36.3939 4.50441C36.4871 4.17255 36.8631 3.80957 37.322 3.92365C37.4704 3.96167 37.6119 4.03081 37.7706 4.08958C37.8258 4.05155 37.8913 3.9997 37.9983 3.92019V4.82246C37.8534 4.87431 37.7844 4.8432 37.7637 4.68072C37.7292 4.40762 37.5566 4.24169 37.2979 4.176C37.0736 4.11724 36.9149 4.25551 36.9528 4.46293C36.9666 4.5217 37.0115 4.59084 37.0633 4.62887C37.2047 4.73257 37.3565 4.819 37.498 4.91925C37.7016 5.06444 37.9051 5.19581 38.0293 5.44125C38.1467 5.67632 38.0949 5.86646 37.9879 6.05313C37.8913 6.21907 37.743 6.35735 37.5532 6.4092C37.3841 6.45414 37.2116 6.55439 37.0253 6.42994C36.9494 6.37809 36.8424 6.38155 36.7562 6.34698C36.6078 6.28475 36.4836 6.33315 36.3283 6.45068" fill="#231F20"/>
<path d="M63.5927 37.4873C63.5893 37.4078 63.5617 37.3248 63.5824 37.2557C63.6825 36.9203 63.6411 36.5746 63.6445 36.2359C63.6445 36.0872 63.7101 36.0492 63.8377 36.0803C63.8515 36.101 63.8722 36.1114 63.8722 36.1287C63.8929 36.4467 63.8343 36.4606 64.2587 36.4848C64.5485 36.502 64.7866 36.4052 65.0315 36.2946C65.2627 36.1944 65.4904 36.0838 65.7147 35.9697C65.8389 35.9074 65.9873 35.859 65.9562 35.6758C66.1632 35.662 66.2357 35.7 66.1908 35.8176C66.0701 36.1321 66.1287 36.4606 66.108 36.7821C66.108 36.7993 66.0977 36.8166 66.0942 36.8305C65.9654 36.8742 65.8769 36.8166 65.8286 36.6576C65.5215 36.7924 65.2178 36.9273 64.8763 37.0759C65.1833 37.2833 65.4559 37.4631 65.7492 37.6567C65.7871 37.5599 65.801 37.4907 65.8389 37.4389C65.8665 37.4043 65.9321 37.387 65.9769 37.3939C66.0011 37.3939 66.039 37.4562 66.0425 37.4942C66.0425 37.7016 66.0459 37.9125 66.0287 38.1199C66.0218 38.2202 65.9424 38.2685 65.8182 38.2305C65.8182 38.0266 65.6629 37.9194 65.5146 37.8122C65.2869 37.6498 65.0522 37.4942 64.8245 37.3317C64.69 37.2349 64.5485 37.1934 64.3829 37.1934C64.2621 37.1934 64.1413 37.1692 64.0171 37.1589C63.855 37.145 63.8101 37.1692 63.7929 37.3352C63.7791 37.4665 63.7446 37.5322 63.5858 37.4838" fill="#231F20"/>
<path d="M39.6372 6.45415C39.7442 6.4818 39.8097 6.50254 39.8925 6.52329V6.72725C39.7821 6.72725 39.6717 6.75836 39.5958 6.72033C39.3922 6.62354 39.1852 6.65465 38.9782 6.64082C38.8609 6.63391 38.7436 6.58897 38.6228 6.55785C38.5987 6.31241 38.816 6.44032 38.9299 6.36772C39.0127 5.73164 39.0955 5.09902 39.1783 4.46639C38.8022 4.36268 38.7367 4.49059 38.6125 4.70147C38.5952 4.72912 38.5987 4.78443 38.5745 4.7948C38.5228 4.819 38.4606 4.83975 38.4089 4.82592C38.3778 4.819 38.3468 4.73949 38.3502 4.69801C38.364 4.60467 38.4158 4.51825 38.4296 4.42491C38.4434 4.33157 38.4296 4.23823 38.4296 4.12761C38.609 4.10687 38.7608 4.08267 38.9126 4.14835C38.9747 4.17601 39.0507 4.17255 39.1197 4.17601C39.3025 4.17947 39.4854 4.15527 39.6579 4.25206C39.72 4.28663 39.8132 4.26243 39.8925 4.26935C40.1341 4.29009 40.3756 4.31429 40.624 4.33849C40.6309 4.42837 40.6447 4.49059 40.6378 4.5459C40.6205 4.68418 40.5895 4.819 40.5791 4.95382C40.5722 5.03334 40.5481 5.0921 40.4584 5.0921C40.3756 5.0921 40.3307 5.04716 40.3273 4.9642C40.3273 4.94691 40.3273 4.92963 40.3273 4.91234C40.3204 4.67035 40.241 4.55973 39.8649 4.54245C39.789 5.17161 39.7131 5.80078 39.6372 6.45069" fill="#231F20"/>
<path d="M42.4596 4.76714C43.1979 4.97801 43.8811 5.17852 44.5884 5.37902C44.5332 5.61064 44.4814 5.82842 44.4262 6.04967H44.1951C44.2158 5.75237 44.1951 5.47927 43.8086 5.42396C43.7189 5.71434 43.6223 6.00819 43.5326 6.30203C43.4567 6.55784 43.398 6.82057 43.3221 7.07293C43.2635 7.27689 43.2566 7.29418 43.4498 7.39443C43.5361 7.43937 43.5326 7.49122 43.4981 7.59493C43.3083 7.54999 43.1186 7.50851 42.9288 7.46011C42.7356 7.41171 42.5458 7.35986 42.3526 7.31146C42.2767 7.29072 42.2111 7.25269 42.2318 7.16972C42.2422 7.12824 42.3043 7.0833 42.3491 7.06602C42.4285 7.04182 42.5562 7.06947 42.5907 7.02453C42.6562 6.93119 42.6769 6.80329 42.7114 6.68921C42.8425 6.22252 42.9702 5.75583 43.1048 5.28222C42.8425 5.05752 42.7183 5.18543 42.5458 5.35482C42.4906 5.41013 42.4458 5.47236 42.3905 5.52421C42.3836 5.53113 42.356 5.52421 42.3112 5.5173C42.2456 5.25803 42.4182 5.05061 42.4561 4.76022" fill="#231F20"/>
<path d="M47.9352 7.04873C47.6178 6.85859 47.5764 6.86205 47.328 7.0833C47.2728 7.13169 47.2107 7.17663 47.1554 7.21812C47.1244 7.19046 47.1002 7.18009 47.1002 7.16626C47.0864 6.91736 47.2417 6.73069 47.3556 6.53018C47.3694 6.50598 47.4694 6.50944 47.5177 6.53018C48.0491 6.7618 48.5804 6.99687 49.1118 7.2354C49.1911 7.26997 49.2601 7.31837 49.3498 7.37022C49.2739 7.57419 49.2084 7.77123 49.129 7.96137C49.1152 7.99939 49.0462 8.03742 49.0083 8.03396C48.9703 8.0305 48.9186 7.97865 48.9048 7.93717C48.8875 7.89223 48.9048 7.83691 48.9117 7.78506C48.9565 7.47048 48.9289 7.42899 48.5942 7.31491C48.5735 7.33566 48.5459 7.35985 48.5321 7.38751C48.3079 7.88531 48.087 8.38657 47.8593 8.88437C47.8007 9.01228 47.8283 9.09871 47.9387 9.17476C47.987 9.20587 48.0284 9.24735 48.0801 9.28884C47.9973 9.40983 47.9076 9.37872 47.8179 9.34069C47.5074 9.21279 47.2003 9.08142 46.8898 8.95351C46.7932 8.91203 46.7587 8.84635 46.8001 8.70807C46.9001 8.73227 47.0036 8.75301 47.1416 8.78412C47.4384 8.23447 47.6557 7.61913 47.9421 7.04527" fill="#231F20"/>
<path d="M61.495 18.9027C61.5812 18.9199 61.6468 18.9338 61.74 18.9545C61.7227 19.0202 61.7227 19.1101 61.6917 19.1239C61.4432 19.2276 61.25 19.4489 60.9671 19.518C60.9222 19.4005 60.9533 19.3348 61.0154 19.2587C61.1879 19.0478 61.2155 18.8128 61.1086 18.5535C60.9912 18.27 60.6186 18.1214 60.3115 18.2113C59.9906 18.3081 59.6939 18.4671 59.4869 18.7367C59.3834 18.8681 59.2695 19.0444 59.273 19.1965C59.2799 19.3797 59.3696 19.5802 59.5387 19.715C59.687 19.836 59.863 19.8775 60.039 19.9294C60.07 19.9397 60.1045 19.9432 60.139 19.9501C60.0976 20.1472 59.9975 20.2094 59.8354 20.161C59.3109 19.9985 58.997 19.6252 58.8693 19.1204C58.7313 18.5673 58.9832 18.0764 59.4766 17.793C59.6318 17.7031 59.8112 17.6409 59.9906 17.6167C60.6083 17.5302 61.3087 18.0419 61.4225 18.6952C61.4363 18.7609 61.4674 18.8266 61.495 18.9061" fill="#231F20"/>
<path d="M64.1793 29.64C64.2069 29.8716 64.2069 29.8716 64.0482 29.8889C63.8757 29.9096 63.7032 29.9304 63.5307 29.9615C63.3478 29.9961 63.2753 29.9546 63.2305 29.7679C63.158 29.4741 63.0856 29.1802 63.0097 28.8829C62.9372 28.5891 62.8613 28.2952 62.7888 28.0014C62.7785 27.9599 62.7681 27.9184 62.7543 27.87C62.8578 27.8285 62.9476 27.7836 62.9855 27.9288C63.0235 28.074 63.1201 28.0878 63.2477 28.0567C63.6307 27.9599 64.0171 27.8666 64.4036 27.7732C64.5795 27.7317 64.7555 27.6903 64.9487 27.6453C64.9591 27.5278 64.9694 27.4033 64.9798 27.2754C65.1351 27.2616 65.1799 27.3411 65.2075 27.4552C65.28 27.749 65.3593 28.0429 65.4318 28.3402C65.4525 28.4197 65.449 28.5061 65.4559 28.5925C65.2972 28.6409 65.2248 28.6202 65.2006 28.4577C65.1799 28.3056 65.104 28.2814 64.9591 28.3263C64.7038 28.4093 64.4484 28.4854 64.1897 28.5545C63.9067 28.6306 63.6169 28.6928 63.3133 28.7654C63.265 29.0004 63.365 29.2252 63.4616 29.4257C63.5376 29.5881 63.7515 29.6054 63.9205 29.6365C64.0033 29.6504 64.0931 29.6365 64.1724 29.6365" fill="#231F20"/>
<path d="M58.6968 14.8165C58.4863 14.9998 58.3587 15.2348 58.024 15.3109C58.0619 15.1934 58.0757 15.1208 58.1102 15.062C58.2551 14.8027 58.2413 14.7059 58.0033 14.4812C57.9515 14.5158 57.886 14.5434 57.8377 14.5884C57.4754 14.9306 57.1165 15.2763 56.7577 15.6255C56.6024 15.7776 56.6059 15.7845 56.7129 15.9988C56.7232 16.0196 56.7198 16.0507 56.7232 16.0783C56.6576 16.1544 56.5817 16.1509 56.5196 16.0887C56.2678 15.8329 56.0193 15.5736 55.7744 15.3143C55.7502 15.2867 55.7502 15.2348 55.7399 15.1934C55.9158 15.0689 55.971 15.2659 56.116 15.3074C56.5645 14.8719 57.0268 14.4225 57.4892 13.9765C57.2787 13.7103 57.1614 13.6827 56.8681 13.8279C56.844 13.8382 56.8198 13.859 56.7957 13.859C56.7474 13.859 56.6784 13.859 56.6577 13.8313C56.637 13.8037 56.6507 13.7241 56.6818 13.693C56.8233 13.5478 56.9716 13.413 57.1372 13.254C57.4374 13.4718 57.6513 13.7725 57.917 14.0145C58.1827 14.2565 58.4173 14.5296 58.7002 14.82" fill="#231F20"/>
<path d="M56.4023 54.499C56.2574 54.5508 56.1677 54.5819 56.0745 54.6165C56.0607 54.5992 56.0469 54.5819 56.0331 54.5612C56.1055 54.3088 56.3747 54.1948 56.5023 53.977C56.5265 53.939 56.6231 53.9459 56.6852 53.932C56.699 53.9873 56.7163 54.0185 56.7059 54.0357C56.6024 54.219 56.6783 54.3884 56.7508 54.5543C57.013 55.1765 57.2821 55.7953 57.5443 56.4176C57.5581 56.4452 57.5512 56.4867 57.5547 56.5593C57.4098 56.5282 57.2752 56.5144 57.151 56.4729C56.5541 56.2689 55.9606 56.0546 55.3637 55.8507C55.2775 55.823 55.1774 55.8368 55.0842 55.8403C55.0256 55.8403 54.9704 55.8576 54.8669 55.8749C54.8945 55.7815 54.8979 55.7089 54.9324 55.6674C55.136 55.4393 55.3534 55.2215 55.5569 54.9933C55.6363 54.9034 55.7122 54.8965 55.8226 54.976C55.7709 55.059 55.726 55.1351 55.6743 55.218C55.7398 55.2526 55.8019 55.2906 55.864 55.3148C56.0055 55.3701 56.1331 55.3667 56.2401 55.2388C56.3471 55.1109 56.4644 54.9968 56.5955 54.8585C56.5265 54.7341 56.4644 54.6165 56.3988 54.499M56.3126 55.4877C56.5299 55.5672 56.7162 55.6329 56.9026 55.6985C56.9164 55.6847 56.9302 55.6674 56.944 55.6536C56.8681 55.4738 56.7887 55.2906 56.699 55.0763C56.561 55.2215 56.454 55.339 56.316 55.4877" fill="#231F20"/>
<path d="M40.9139 4.63578C40.9208 4.57702 40.9242 4.51133 40.9311 4.43182C41.3624 4.52516 41.773 4.61504 42.1905 4.70838C42.1974 4.74641 42.2077 4.78098 42.2077 4.81209C42.2077 4.83629 42.1905 4.86049 42.187 4.87777C42.0732 4.96765 41.9041 4.78789 41.8316 4.96074C41.7833 5.07136 41.7695 5.19581 41.7419 5.31335C41.6798 5.59336 41.6108 5.86992 41.5556 6.14993C41.5142 6.35389 41.4935 6.56131 41.4694 6.72725C41.5246 6.88627 41.7626 6.83441 41.7143 7.0522C41.3141 7.1248 40.9553 6.91046 40.5688 6.88627C40.5067 6.88281 40.4481 6.8033 40.3825 6.75836C40.4757 6.60971 40.6102 6.69268 40.731 6.63736C40.7482 6.59588 40.7896 6.53711 40.8034 6.47489C40.8966 6.01511 40.9794 5.55534 41.0691 5.09902C41.076 5.06445 41.0829 5.02988 41.0933 4.99877C41.1462 4.82592 41.0852 4.70723 40.9104 4.6427" fill="#231F20"/>
<path d="M2.7637 31.9423C2.98452 31.9734 3.16739 32.0046 3.36406 32.0322C3.34336 32.2431 3.3261 32.4367 3.3054 32.6441C3.10873 32.7443 2.92242 32.5957 2.7292 32.6268C2.63604 32.3917 2.7706 32.1981 2.7637 31.9389" fill="#231F20"/>
<path d="M7.76668 17.4749C7.92885 17.5648 8.08066 17.6374 8.22213 17.7308C8.25318 17.7515 8.25663 17.8414 8.24283 17.8932C8.23248 17.9382 8.18072 17.9727 8.14622 18.0142C8.07031 18.1007 8.05996 18.2873 7.9185 18.2666C7.78049 18.2458 7.64937 18.156 7.52861 18.0765C7.45271 18.0281 7.42165 17.952 7.50446 17.8587C7.59417 17.755 7.66317 17.634 7.77013 17.4749" fill="#231F20"/>
<path d="M24.5076 43.4851C24.5179 43.4402 24.5283 43.4056 24.5283 43.3745C24.5386 42.0677 24.9044 40.8509 25.4806 39.6963C25.829 38.998 26.2603 38.3446 26.7365 37.7258C27.3541 36.9238 28.0545 36.2013 28.7894 35.5099C28.8067 35.4926 28.8205 35.4684 28.855 35.4235C28.6617 35.3543 28.4789 35.2783 28.296 35.2195C27.4265 34.9429 26.5847 34.6042 25.7738 34.1859C25.2356 33.9059 24.7042 33.6189 24.1901 33.3009C23.5932 32.931 23.0308 32.5127 22.5236 32.0218C22.4546 31.9561 22.3753 31.9008 22.289 31.8282C22.1545 31.9285 22.0268 32.0184 21.906 32.1152C21.2091 32.651 20.5846 33.2663 20.0118 33.9335C19.1147 34.9844 18.3281 36.1114 17.638 37.3075C17.5828 37.4008 17.5103 37.4838 17.4241 37.6014C17.393 37.1623 18.3039 34.9049 18.8801 33.8782C19.5357 32.7132 20.3361 31.6727 21.3885 30.8257C20.9468 30.2761 20.5777 29.7022 20.2671 29.0903C19.8772 28.3229 19.6012 27.5105 19.4218 26.6704C19.1941 25.6022 19.132 24.5168 19.1975 23.4278C19.2562 22.4149 19.3942 21.409 19.6599 20.4237C19.822 19.8153 19.9842 19.2103 20.1533 18.6019C20.1774 18.5155 20.2257 18.4325 20.3154 18.3565C20.3258 18.4014 20.3499 18.4463 20.3465 18.4878C20.2809 18.9199 20.1912 19.3486 20.1429 19.7807C20.0877 20.2751 20.0601 20.7763 20.0256 21.2741C20.0084 21.5369 19.9877 21.7996 19.9911 22.0589C19.998 22.4772 20.0325 22.8989 20.0394 23.3172C20.0532 24.1019 20.1947 24.8694 20.3741 25.623C20.5846 26.508 20.9123 27.3618 21.3609 28.1604C21.7128 28.7896 22.1338 29.3703 22.6099 29.9096C22.634 29.9373 22.6582 29.958 22.6651 29.9615C23.124 29.7886 23.5587 29.5985 24.0073 29.4637C24.4558 29.3323 24.9216 29.2286 25.3874 29.1664C25.9049 29.0972 26.4328 29.0557 26.9573 29.0627C27.6474 29.073 28.3374 29.1076 29.0206 29.2321C29.7589 29.3669 30.4973 29.4948 31.215 29.7264C31.2357 29.7333 31.2633 29.7195 31.3081 29.7126C31.2736 29.5224 31.2426 29.3358 31.2046 29.1491C31.108 28.6686 30.9907 28.195 30.9183 27.711C30.8492 27.2547 30.8285 26.788 30.7906 26.3247C30.7699 26.062 30.725 25.7993 30.7423 25.54C30.7837 24.9385 30.7871 24.337 30.8734 23.7355C30.9597 23.1271 31.108 22.5359 31.284 21.9171C31.0183 21.7927 30.7595 21.6544 30.487 21.5438C29.7244 21.2361 28.9378 21.001 28.1235 20.8697C27.7612 20.8109 27.4024 20.7383 27.0401 20.7072C26.2638 20.645 25.4875 20.6035 24.7077 20.5585C24.5938 20.5516 24.48 20.5724 24.3661 20.5724C24.3144 20.5724 24.2591 20.5482 24.2074 20.5378C24.2074 20.5205 24.2074 20.5032 24.2039 20.4859C24.3213 20.4445 24.4351 20.3891 24.5559 20.3649C25.0769 20.2509 25.5944 20.116 26.1223 20.0469C26.9814 19.9328 27.8406 19.8084 28.7101 19.8913C29.0378 19.9225 29.3691 19.9709 29.6968 20.0089C30.3386 20.0884 30.939 20.282 31.5359 20.4998C31.6187 20.5309 31.698 20.5655 31.8015 20.6104C31.8464 20.5378 31.8912 20.4687 31.9326 20.3961C32.357 19.594 32.8746 18.8612 33.4887 18.1905C34.4548 17.1431 35.5865 16.3099 36.8252 15.6151C37.8051 15.0654 38.8367 14.6298 39.896 14.2634C40.6136 14.0145 41.352 13.8244 42.0835 13.6135C42.1973 13.5824 42.3216 13.572 42.4423 13.5478C42.4492 13.6965 42.3284 13.7034 42.2456 13.7414C41.8834 13.897 41.5211 14.0525 41.1588 14.2046C40.2134 14.6022 39.3094 15.0862 38.433 15.6151C37.5429 16.1509 36.6975 16.7455 35.935 17.4507C35.1794 18.149 34.4928 18.9061 33.9476 19.7911C33.6509 20.2716 33.3921 20.766 33.1782 21.2845C33.1644 21.3156 33.1575 21.3502 33.1472 21.3882C33.3611 21.5749 33.575 21.7546 33.782 21.9379C34.3341 22.4184 34.7861 22.9853 35.2001 23.5903C35.7418 24.3819 36.1765 25.2323 36.5285 26.1242C36.8528 26.947 37.1461 27.7767 37.3358 28.6409C37.3772 28.838 37.4463 29.0246 37.5153 29.2562C37.6636 29.1214 37.7982 29.0039 37.9258 28.8829C38.9713 27.8735 40.1099 26.985 41.3865 26.2902C41.9765 25.9687 42.5941 25.6956 43.2359 25.4882C43.5913 25.3741 43.9604 25.298 44.3227 25.2047C44.3883 25.1874 44.4504 25.1598 44.5436 25.1252C44.4504 24.6654 44.3745 24.2091 44.2675 23.7597C43.9777 22.5463 43.5154 21.3917 42.9771 20.2716C42.67 19.6321 42.3457 18.9994 42.0283 18.3634C41.9593 18.2285 41.8868 18.0937 41.8489 17.9243C41.9006 17.9451 41.9593 17.9589 42.0007 17.9935C42.5596 18.4636 43.0703 18.9787 43.5223 19.556C43.9604 20.1195 44.3469 20.7072 44.6781 21.3398C45.1129 22.1729 45.4682 23.0372 45.6615 23.9602C45.7236 24.2575 45.7822 24.5582 45.8512 24.8555C45.8926 25.0318 45.8961 25.0146 46.0789 25.0111C46.3653 25.0042 46.6551 25.0111 46.945 25.0353C47.6626 25.0906 48.3596 25.222 49.0531 25.4294C49.7259 25.6299 50.3746 25.8823 51.006 26.1899C51.9307 26.6428 52.7967 27.189 53.6213 27.8009C54.7599 28.6444 55.7985 29.5985 56.7404 30.5837C57.0475 30.5837 57.3166 30.5492 57.5788 30.5837C57.8583 30.6183 58.0826 30.7981 58.2448 31.0228C58.4932 31.365 58.6036 31.7487 58.4311 32.1601C58.231 32.6337 57.8721 32.9275 57.3615 32.9794C56.7025 33.0416 56.1021 32.4539 56.0883 31.7867C56.0814 31.3754 56.2332 31.0573 56.5541 30.8119C56.5955 30.7808 56.6335 30.7393 56.6887 30.6874C56.4713 30.5146 56.2643 30.3417 56.0504 30.1827C55.1533 29.5224 54.2251 28.9036 53.2521 28.3609C52.3723 27.87 51.4649 27.4413 50.5091 27.1095C49.8536 26.8813 49.1877 26.6981 48.5114 26.5875C47.7868 26.4734 47.0519 26.3904 46.3136 26.4907C46.2101 26.5045 46.1065 26.4907 45.9754 26.4907C45.9099 28.1155 45.482 29.6123 44.6333 30.9813C43.7914 32.3364 42.6562 33.4046 41.3072 34.3207C43.8086 34.9395 46.0962 35.8971 48.0422 37.5979C48.3113 37.3421 48.577 37.1139 48.8081 36.8581C49.2981 36.3188 49.7777 35.7726 50.2469 35.2161C50.6541 34.7355 51.037 34.2343 51.4338 33.7434C51.6823 33.4357 51.9376 33.135 52.1894 32.8342C52.2205 32.7996 52.2688 32.7789 52.3516 32.7201C52.3275 32.8238 52.3275 32.8861 52.3033 32.9345C51.9548 33.6397 51.6098 34.3518 51.251 35.0501C50.7403 36.0423 50.1848 37.0033 49.4637 37.8641C49.2912 38.0715 49.1083 38.272 48.922 38.4898C48.96 38.5486 48.9945 38.6073 49.0359 38.6592C49.8984 39.6997 50.4953 40.882 50.8335 42.1887C50.9818 42.7557 51.0508 43.333 51.0992 43.9241C51.1509 44.5533 51.1371 45.1756 51.0992 45.8047C51.0474 46.6378 50.9094 47.4537 50.7265 48.2661C50.5437 49.0681 50.2952 49.8528 50.033 50.6306C49.9605 50.8415 49.8708 51.0455 49.788 51.2529C49.7639 51.246 49.7397 51.2425 49.7156 51.2356C49.7294 51.1423 49.7363 51.0455 49.757 50.9521C49.8605 50.4301 49.9812 49.9081 50.071 49.3861C50.1193 49.1027 50.1331 48.8123 50.1469 48.5219C50.1848 47.7268 50.1814 46.9317 50.102 46.1366C49.9295 44.339 49.3809 42.6623 48.4907 41.0998C48.225 40.6366 47.8973 40.2114 47.5971 39.7689C47.5626 39.717 47.5315 39.6652 47.5108 39.6375C47.0795 39.8311 46.7034 40.0178 46.3136 40.1733C45.8271 40.3669 45.3199 40.4879 44.7989 40.5813C43.988 40.7299 43.1772 40.7437 42.363 40.7195C41.9455 40.7057 41.528 40.6366 41.1139 40.5743C40.6205 40.5017 40.1271 40.4291 39.6407 40.3289C39.1266 40.2217 38.6194 40.0834 38.1122 39.959C38.0811 39.9521 38.0466 39.9452 37.9673 39.9313C38.8816 42.41 39.0299 44.9094 38.3847 47.4571C38.4434 47.4917 38.4917 47.5263 38.5435 47.5539C39.1369 47.834 39.7511 48.0656 40.3963 48.19C41.0553 48.3179 41.7143 48.4597 42.3768 48.5772C42.8322 48.6567 43.2945 48.6982 43.7534 48.7673C44.34 48.8572 44.9265 48.9575 45.5096 49.0543C45.6649 49.0785 45.8202 49.1027 45.9754 49.1338C46.0203 49.1441 46.0582 49.1787 46.1031 49.2548C46.0099 49.2755 45.9133 49.3066 45.8202 49.3135C45.106 49.3688 44.3883 49.4311 43.6741 49.4656C42.9909 49.5002 42.3043 49.5348 41.6246 49.5175C40.8207 49.4968 40.0167 49.3965 39.237 49.196C38.8816 49.1061 38.54 48.9644 38.195 48.8503C38.1225 48.8261 38.0501 48.8019 37.9569 48.7742C37.1254 50.8208 35.866 52.5147 34.0891 53.8041C32.3191 55.0867 30.3248 55.7227 28.1373 55.8265C28.0303 56.1894 27.8199 56.4936 27.4679 56.6769C27.2195 56.8082 26.9469 56.8428 26.6778 56.7771C26.074 56.625 25.6703 56.0511 25.7393 55.46C25.8152 54.8032 26.3362 54.3953 26.9228 54.3572C27.5576 54.3158 28.0131 54.8032 28.2063 55.7089C28.5858 55.619 28.9688 55.5361 29.3449 55.4324C30.035 55.2422 30.7043 54.9795 31.353 54.6718C32.0051 54.3607 32.6124 53.9839 33.1886 53.5483C34.1409 52.8258 34.9275 51.9512 35.5555 50.9314C36.0075 50.1985 36.3594 49.4172 36.6113 48.591C36.632 48.5253 36.6354 48.4493 36.6699 48.3905C36.8217 48.1313 36.6906 47.9791 36.4905 47.827C35.6038 47.1529 34.9448 46.2818 34.3789 45.3346C33.8269 44.4116 33.4163 43.4263 33.0713 42.4134C32.8953 41.8914 32.7607 41.3556 32.6055 40.8302C32.5882 40.7714 32.5572 40.7195 32.5227 40.6366C30.7837 42.7142 28.6031 44.0417 25.9705 44.657C26.0085 44.9439 26.0326 45.2136 26.0809 45.4763C26.25 46.3993 26.5226 47.2912 26.8503 48.1693C27.1816 49.0473 27.5749 49.8978 27.9855 50.7378C28.0786 50.9314 28.1925 51.1146 28.3098 51.3324C28.1856 51.2955 28.0246 51.1584 27.8268 50.921C27.6922 50.7585 27.5576 50.5995 27.4265 50.4336C27.2954 50.2711 27.1643 50.1052 27.0401 49.9358C26.9159 49.7664 26.7917 49.597 26.6744 49.4242C26.5536 49.2513 26.4328 49.0785 26.319 48.9022C26.2051 48.7259 26.0982 48.5426 25.9912 48.3629C25.8911 48.1866 25.7945 48.0103 25.7014 47.8305C25.6048 47.6438 25.5082 47.4571 25.4185 47.267C25.3322 47.0769 25.2494 46.8833 25.1735 46.6862C25.0976 46.4892 25.0251 46.2922 24.963 46.0916C24.9009 45.8911 24.8422 45.6906 24.7905 45.4867C24.7387 45.2862 24.6973 45.0822 24.6525 44.8783C21.7473 45.1479 19.0802 44.5153 16.6685 42.8801C15.3953 42.0159 14.3567 40.9131 13.5114 39.6064C13.6391 39.558 13.6805 39.641 13.7322 39.6894C13.9703 39.9348 14.2015 40.1872 14.4464 40.4257C15.6127 41.5699 16.9479 42.4515 18.4799 43.0322C18.9457 43.2085 19.4253 43.3641 19.9083 43.4644C20.4534 43.5784 21.0158 43.6199 21.5679 43.6994C22.2442 43.7962 22.9135 43.6891 23.5829 43.6337C23.8934 43.6061 24.2005 43.53 24.5145 43.4713M34.0718 39.6513C34.2064 40.3289 34.3341 40.9719 34.4617 41.6114C34.6066 42.3443 34.8344 43.0495 35.1138 43.7375C35.4865 44.6536 35.9833 45.4936 36.6734 46.2126C36.7803 46.3233 36.8735 46.4685 37.046 46.5169C37.0702 46.2368 37.1047 45.9776 37.115 45.7183C37.1702 44.498 37.0874 43.2881 36.8252 42.0919C36.6458 41.2726 36.4181 40.4637 36.0903 39.6894C36.0523 39.596 36.0316 39.4958 36.0006 39.3886C36.3042 39.2365 36.5871 39.0982 36.8666 38.9565C37.2013 38.7905 37.498 38.5797 37.7292 38.2824C37.8982 38.0646 37.9189 38.0611 38.1674 38.1648C39.3405 38.6488 40.5412 39.0291 41.8006 39.233C42.601 39.3609 43.4015 39.4128 44.2089 39.3264C44.9265 39.2469 45.6166 39.0602 46.2756 38.7629C46.3619 38.7249 46.4378 38.6696 46.524 38.6142C46.493 38.5693 46.4792 38.5347 46.455 38.5105C46.1583 38.2513 45.8685 37.9782 45.5545 37.7431C44.6298 37.0517 43.6327 36.4917 42.5286 36.1391C42.1145 36.0077 41.6936 35.8832 41.2658 35.7899C40.8897 35.7069 40.5067 35.6724 40.1237 35.6205C40.0064 35.6032 39.9581 35.5375 39.9581 35.4235C39.9581 35.2817 39.9581 35.1435 39.9581 35.0017C39.9581 34.4901 39.8787 33.9923 39.6579 33.5256C39.5544 33.3078 39.5578 33.3009 39.7718 33.1799C40.3928 32.8342 40.9863 32.4505 41.5521 32.0149C42.5665 31.2302 43.3877 30.2933 43.9432 29.1283C44.2572 28.475 44.4228 27.7801 44.5401 27.0749C44.5539 26.9919 44.5401 26.9055 44.5401 26.8087C44.4538 26.8156 44.3917 26.8087 44.3365 26.826C43.6189 27.0611 42.9254 27.348 42.2698 27.7248C41.2451 28.3125 40.3273 29.0419 39.4992 29.8785C39.0783 30.3003 38.6953 30.76 38.295 31.1991C38.2433 31.2544 38.1812 31.2993 38.126 31.3477C37.7499 31.0124 37.3427 30.7739 36.8977 30.6045C36.5802 30.4835 36.2524 30.3832 35.9247 30.2899C35.7625 30.2449 35.7038 30.162 35.69 29.996C35.6279 29.4049 35.5831 28.8103 35.4727 28.2295C35.2657 27.1268 34.9517 26.0516 34.4169 25.056C34.0235 24.3266 33.5405 23.6629 32.9367 23.0925C32.8608 23.0199 32.7918 22.9162 32.6538 22.93C32.6469 23.0441 32.6503 23.1513 32.6296 23.2515C32.502 23.8634 32.4674 24.4822 32.4674 25.1044C32.4674 25.9376 32.5606 26.7603 32.7193 27.5796C32.8401 28.2053 32.9884 28.8241 33.1886 29.4291C33.261 29.6503 33.3162 29.882 33.3921 30.1032C33.437 30.2346 33.4059 30.2968 33.2783 30.3383C32.7331 30.5146 32.2708 30.8223 31.8464 31.1956C31.6359 31.3788 31.4289 31.5655 31.2288 31.7453C31.1805 31.728 31.1563 31.7211 31.1322 31.7107C30.2558 31.2924 29.3656 30.9087 28.4099 30.7013C28.1028 30.6356 27.7992 30.5284 27.4886 30.5146C27.0194 30.4938 26.5502 30.4524 26.074 30.4731C25.4806 30.5008 24.9147 30.6321 24.3489 30.7808C24.1729 30.8257 24.0073 30.9052 23.8141 30.9778C23.8727 31.0435 23.9072 31.0954 23.9555 31.1265C24.3627 31.3996 24.7594 31.6934 25.1873 31.9319C25.7117 32.2258 26.2534 32.4954 26.8055 32.7374C27.3265 32.9656 27.8613 33.1661 28.403 33.332C28.9964 33.5118 29.6037 33.6397 30.204 33.7883C30.4145 33.8402 30.4387 33.892 30.4111 34.1029C30.3731 34.3898 30.3179 34.6768 30.3317 34.9637C30.3559 35.382 30.4318 35.7934 30.4904 36.2117C30.5042 36.3223 30.5215 36.4329 30.5353 36.5262C30.5111 36.5539 30.5077 36.5608 30.5008 36.5677C30.3628 36.6611 30.2213 36.7509 30.0833 36.8443C29.0896 37.5149 28.1684 38.2616 27.43 39.2192C26.6675 40.2044 26.1879 41.3038 25.9947 42.531C25.9671 42.7004 25.9636 42.8732 25.9464 43.0599C26.005 43.0495 26.0395 43.0495 26.0706 43.0392C27.223 42.6036 28.3098 42.0436 29.3001 41.3038C29.9832 40.7921 30.625 40.2356 31.1874 39.596C31.4186 39.3333 31.6359 39.0567 31.8567 38.7871C31.9672 38.6523 31.9948 38.6454 32.1397 38.7352C32.2501 38.8044 32.357 38.8839 32.464 38.9565C32.7538 39.1535 33.0368 39.3644 33.3749 39.4681C33.6061 39.5407 33.8476 39.5926 34.0684 39.6513" fill="#231F20"/>
<path d="M14.2912 38.3377C14.3016 39.0083 13.7495 39.5684 13.0767 39.5649C12.3004 39.558 11.8691 38.8908 11.8587 38.3584C11.8484 37.7638 12.3694 37.1347 13.0836 37.1278C13.6978 37.1208 14.2912 37.6601 14.2878 38.3377" fill="#231F20"/>
<path d="M44.9196 13.9558C44.9714 14.5054 44.4228 15.1622 43.7189 15.1657C43.0427 15.1657 42.501 14.5676 42.5113 13.9903C42.5251 13.292 43.0565 12.7078 43.712 12.7251C44.4573 12.7424 44.9576 13.3819 44.9162 13.9592" fill="#231F20"/>
<path d="M19.9842 17.3125C19.9911 16.6211 20.5466 16.0852 21.2056 16.0887C21.9026 16.0956 22.4132 16.7352 22.4098 17.3159C22.4063 17.9105 21.8957 18.5501 21.178 18.5328C20.5087 18.5155 19.9704 17.9658 19.9842 17.3125Z" fill="#231F20"/>
<path d="M50.2469 52.3695C50.2745 52.9399 49.7639 53.5725 49.0497 53.5864C48.4148 53.6002 47.8214 52.9952 47.8214 52.3626C47.8214 51.7403 48.4045 51.1388 49.029 51.1423C49.7535 51.1423 50.2745 51.7818 50.2469 52.366" fill="#231F20"/>
<path d="M35.0069 32.8619C36.2318 32.8895 37.1461 33.8402 37.1461 35.0052C37.1461 36.1771 36.1904 37.1451 35.0035 37.1347C33.8683 37.1278 32.8815 36.2359 32.8781 35.0121C32.8746 33.7745 33.8441 32.8964 35.0069 32.8619Z" fill="#231F20"/>
</g>
<defs>
<clipPath id="clip0_4_166">
<rect width="70" height="70" fill="white"/>
</clipPath>
</defs>
</svg>
