<svg width="313" height="244" viewBox="0 0 313 244" fill="none" xmlns="http://www.w3.org/2000/svg">
<g clip-path="url(#clip0_5_65)">
<path d="M61.741 113.891C45.2033 105.855 31.5169 91.5496 25.7001 74.1665C19.8835 56.7833 22.4496 36.4366 33.6268 21.8461C44.8039 7.25576 64.6494 -0.495387 82.4985 3.89313C102.458 8.85159 117.57 27.2606 137.985 29.8252C151.843 31.5351 165.302 25.6078 178.988 22.7011C192.617 19.7943 209.439 21.3333 216.796 33.131C223.582 44.0737 219.134 58.2082 214.515 70.2338C207.899 87.5029 200.999 105.171 188.853 119.077C178.703 130.704 165.302 139.196 155.036 150.709C148.592 157.948 143.346 166.383 135.362 171.854C122.816 180.402 106.393 179.604 91.2235 178.522C80.2745 177.724 69.2113 176.927 58.7755 173.45C48.3397 169.973 38.5312 163.533 33.2278 153.901C23.8755 136.86 31.0607 115.829 38.3031 97.8188" fill="#F4F6F9"/>
<path d="M291.729 79.3532C290.589 74.5656 289.164 69.7782 286.483 65.6177C281.465 57.8665 273.138 56.7836 264.87 54.4469C260.821 53.3071 258.141 53.1929 254.377 55.2447C248.275 58.5505 242.231 61.9701 236.642 66.0736C231.794 69.6642 227.29 73.8818 223.754 78.8401C223.468 78.6123 223.127 78.3842 222.842 78.0994L222.499 78.2702C219.078 79.2392 215.541 80.265 212.862 83.0008C210.181 85.7364 208.699 90.7519 210.524 94.3426C203.738 93.5446 197.237 98.161 192.561 104.089C187.827 110.016 184.406 117.254 180.243 123.751C177.961 127.342 174.825 131.046 171.061 130.761C168.781 130.591 166.784 128.938 164.56 128.14C162.564 127.456 159.998 127.912 159.029 129.907C158.915 130.077 158.801 130.192 158.686 130.363C157.832 125.005 153.269 121.471 148.878 120.389C144.373 119.306 139.64 119.99 135.078 119.477C123.615 118.052 113.921 108.99 104.91 100.213L103.998 101.125C103.428 93.1456 102.686 73.5399 102.686 73.5399C108.788 72.001 121.106 68.7523 121.106 68.7523C113.921 59.8613 106.108 49.6024 98.0103 39.5145C95.3301 36.1519 91.7373 33.1882 87.6314 32.0483C87.6314 32.0483 81.986 23.6703 73.432 39.0586C70.8087 43.7891 68.984 48.5765 67.7293 52.9081C64.7639 52.0532 61.2853 52.7941 59.0612 55.0168C56.0959 57.9236 55.7538 63.11 58.2629 66.4155C59.8595 68.4673 62.4257 69.6642 64.9918 69.7782C64.9918 69.8922 64.9918 70.0061 64.9918 70.0061C60.6009 80.3791 56.609 88.9851 52.161 97.9901L53.1305 95.9952C24.7312 122.668 2.14894 160.569 0.780306 200.01C0.381119 211.123 3.00423 223.035 10.3606 230.272C16.8616 236.713 25.9859 238.537 34.654 238.138C43.322 237.739 51.8187 235.344 60.4298 234.432C67.501 233.693 74.6294 233.863 81.6437 235.003C86.662 235.857 91.6804 237.17 96.7557 236.941C101.66 236.769 106.792 234.889 109.986 230.672C111.754 230.101 113.522 229.36 115.118 228.392C116.316 227.708 117.456 226.796 118.54 225.77C117.97 227.023 117.399 228.278 116.772 229.474C118.939 229.532 121.106 229.703 123.33 229.931C123.273 230.957 123.159 231.983 123.102 233.009C131.998 234.833 141.065 236.144 150.132 236.941C153.953 238.537 157.603 240.418 161.139 242.527C161.823 240.931 162.45 239.334 163.134 237.739C166.156 237.967 169.18 238.48 171.632 240.19C172.715 236.086 173.798 231.983 174.71 227.822C176.479 219.329 177.391 210.78 177.79 202.118C179.387 198.298 180.927 194.481 182.523 190.663C188.055 188.61 193.473 185.989 197.75 182.626C207.444 174.989 214.972 165.072 221.872 154.927C226.662 147.917 231.567 140.564 232.82 132.186C233.392 128.425 233.277 124.492 234.817 121.016C235.957 118.508 237.896 116.399 239.094 113.891C242.173 107.337 239.608 98.7879 243.998 93.0887L243.883 92.6327C245.652 92.7467 247.362 92.8037 249.131 92.8037C255.403 92.7467 261.562 91.5499 267.778 90.9228C267.948 90.9228 268.121 90.8659 268.291 90.8659C269.203 90.7519 270.174 90.695 271.086 90.638C271.313 91.0369 271.542 91.4928 271.77 91.8918C271.999 92.2908 272.34 92.6897 272.739 92.6897C273.31 92.6327 273.595 91.8347 273.651 91.1509C273.651 90.9798 273.709 90.7519 273.709 90.5809C274.165 90.5809 274.622 90.5809 275.021 90.5238C275.363 91.3788 275.875 92.2337 276.675 92.1197C277.415 92.0058 277.758 91.2078 277.928 90.296C278.442 90.2389 278.955 90.1819 279.468 90.0681C280.152 91.094 281.123 91.8347 282.149 91.3788C283.062 90.9228 283.403 89.726 283.517 88.5861C284.201 88.1301 284.714 87.5602 285.057 86.8193C285.628 85.3945 284.943 83.7417 283.802 82.6587C283.802 81.9178 283.86 81.12 283.86 80.3791C283.916 79.1251 283.916 77.9283 283.916 76.6745C285.057 78.1563 286.254 79.5811 287.509 81.006C288.478 82.1459 290.132 83.2858 291.273 82.3738C292.128 81.7469 292.015 80.436 291.729 79.3532ZM263.673 73.0269C263.729 72.3429 263.9 71.602 264.128 70.9181C264.756 73.3688 266.352 75.5346 268.52 76.3324C268.405 77.7002 268.349 79.0682 268.405 80.436C267.437 80.3791 266.466 80.265 265.612 79.866C263.159 78.7832 263.444 75.3067 263.673 73.0269Z" fill="white"/>
<path d="M248.218 185.931H214.23C213.774 185.931 213.375 185.532 213.375 185.077C213.375 184.62 213.774 184.222 214.23 184.222H247.362V157.15C247.362 156.693 247.761 156.295 248.218 156.295H271.999V133.212C271.999 132.756 272.398 132.357 272.853 132.357H312.146C312.601 132.357 313 132.756 313 133.212C313 133.668 312.601 134.067 312.146 134.067H273.709V157.15C273.709 157.605 273.31 158.004 272.853 158.004H249.073V185.077C249.073 185.532 248.674 185.931 248.218 185.931Z" fill="#3F4254"/>
<path d="M147.966 3.43744C146.996 2.63953 146.027 1.89862 144.829 1.44267C143.461 0.929726 141.807 0.929671 140.552 1.67059C140.324 1.44261 139.982 1.38564 139.64 1.61361C136.56 3.32342 134.735 6.91404 134.849 10.3907C134.964 14.0953 137.302 17.1729 140.723 18.5407C144.088 19.9087 148.194 19.3387 150.76 16.66C152.129 15.2351 153.041 13.3543 152.984 11.3595C152.927 9.30776 151.9 7.48395 150.532 5.94512C149.79 4.97622 148.878 4.17837 147.966 3.43744ZM149.791 15.1212C145.742 19.6806 137.416 17.1158 136.617 11.0745C136.275 8.45285 137.302 5.66016 139.298 3.89336C139.64 4.34932 140.381 4.52029 140.723 3.89336C141.465 2.46851 143.346 2.52556 144.658 3.15248C146.198 3.89339 147.623 5.20422 148.878 6.45809C150.019 7.65495 151.102 9.07979 151.273 10.7326C151.501 12.3284 150.817 13.9813 149.791 15.1212ZM147.452 7.99694C146.768 9.70676 146.084 11.4166 145.399 13.1264C145.285 13.4113 145.114 13.6393 144.829 13.6963C144.544 13.7533 144.202 13.6963 143.974 13.4683C142.833 12.1005 141.636 10.7326 140.495 9.30777C140.21 8.9658 140.153 8.45288 140.495 8.1109C140.837 7.76894 141.35 7.82594 141.693 8.1109C141.978 8.33889 142.206 8.50986 142.491 8.73783C142.662 8.90882 142.776 9.13677 142.719 9.36475C143.233 9.99167 143.746 10.6186 144.316 11.2456C144.829 9.99171 145.342 8.73786 145.799 7.484C145.97 7.02804 146.369 6.80006 146.825 6.91405C147.224 7.02804 147.567 7.59799 147.452 7.99694ZM194.157 1.61361C189.824 -0.837122 184.862 0.815711 180.527 2.41153C179.501 2.81049 179.958 4.46332 180.984 4.06437C181.041 4.06437 181.155 4.00739 181.213 4.00739C179.045 6.28714 178.532 9.82072 179.787 12.6704C181.269 15.9761 185.089 17.9709 188.626 17.6859C192.332 17.3439 195.697 14.7792 197.179 11.4166C197.977 9.53579 198.32 7.37002 197.578 5.43224C196.894 3.77942 195.639 2.46851 194.157 1.61361ZM196.096 9.25079C195.354 12.3284 192.846 14.9502 189.824 15.748C186.972 16.4891 183.664 15.4631 181.953 13.0124C180.072 10.3906 180.585 6.57205 183.094 4.52027C183.607 4.12132 183.379 3.5514 182.98 3.26644C185.775 2.29754 188.739 1.49965 191.648 2.35455C194.727 3.32345 196.838 5.94515 196.096 9.25079ZM193.929 6.45809C191.933 8.22488 190.451 10.5046 189.709 13.0693C189.539 13.5823 188.911 13.8673 188.454 13.5823C186.515 12.3284 184.975 10.6186 183.95 8.62387C183.437 7.65497 184.919 6.80006 185.432 7.76896C186.174 9.19381 187.199 10.5047 188.454 11.4736C189.367 9.07982 190.792 6.91404 192.731 5.26122C193.529 4.5203 194.727 5.71715 193.929 6.45809ZM176.422 11.0176C169.464 11.0176 162.564 11.0745 155.607 11.0745C154.524 11.0745 154.524 9.36475 155.607 9.36475C162.564 9.36475 169.464 9.30777 176.422 9.30777C177.505 9.30777 177.505 11.0176 176.422 11.0176ZM225.864 10.5617C218.451 11.2456 210.981 11.3596 203.509 10.9036C202.426 10.8466 202.426 9.13681 203.509 9.19381C210.981 9.64976 218.451 9.53579 225.864 8.85185C226.947 8.73787 226.947 10.4477 225.864 10.5617ZM248.788 12.2144C247.192 15.4631 242.971 16.2041 239.778 15.6911C236.185 15.1212 232.82 12.6704 232.251 8.96581C231.681 5.5462 234.076 2.06956 237.611 1.89859C238.695 1.84159 238.695 3.5514 237.611 3.60838C236.185 3.72238 234.932 4.69126 234.304 5.94512C233.62 7.31298 233.791 9.02281 234.475 10.3907C235.9 13.1264 239.037 14.2092 241.946 14.1522C244.455 14.0952 247.42 12.8414 247.649 9.93468C247.819 7.14199 245.822 4.57731 243.542 3.20946C241.204 1.78462 238.409 1.32868 235.786 2.01261C234.703 2.29757 234.246 0.644743 235.331 0.359775C239.094 -0.609118 243.143 0.416755 246.051 2.98148C248.617 5.14724 250.386 8.9658 248.788 12.2144Z" fill="#3F4254"/>
<path d="M159.941 184.678C160.341 186.729 161.993 188.326 163.932 188.951C162.679 189.693 161.652 191.004 160.854 192.144C159.884 193.569 159.2 195.164 158.801 196.817C158.117 197.216 157.888 198.072 158.344 198.812C158.971 199.838 160.511 199.723 161.538 199.781C164.161 199.952 166.784 200.18 169.407 200.351C169.864 200.408 170.263 199.952 170.263 199.497C170.319 197.673 170.148 195.791 169.807 193.967C169.521 192.486 169.18 190.889 168.209 189.636C167.981 189.294 167.64 189.066 167.355 188.895C168.951 188.326 170.321 187.015 170.947 185.362C171.803 183.025 170.832 180.289 168.895 178.865C166.669 177.211 163.248 177.668 161.424 179.719C161.253 179.891 161.195 180.061 161.195 180.232C160.112 181.43 159.655 183.195 159.941 184.678ZM167.981 193.512C168.381 195.164 168.552 196.874 168.552 198.641C167.012 198.527 165.472 198.413 163.932 198.298C163.078 198.242 162.165 198.186 161.309 198.128C160.968 198.128 160.567 198.072 160.226 198.072C160.283 198.014 160.341 197.9 160.341 197.785C160.74 196.076 161.423 194.424 162.45 192.999C162.907 192.314 163.477 191.689 164.046 191.118C164.56 190.663 165.244 190.15 165.985 190.32C167.297 190.49 167.754 192.428 167.981 193.512ZM163.419 180.973C163.932 180.859 164.104 180.404 163.99 180.005C164.959 179.548 166.156 179.492 167.183 179.947C168.781 180.63 169.749 182.512 169.464 184.165C169.236 185.875 167.64 187.3 165.985 187.47C164.275 187.699 162.506 186.558 161.823 185.019C161.195 183.594 161.708 181.372 163.419 180.973ZM171.803 210.894C171.859 212.149 170.605 212.946 169.464 212.89C168.781 212.89 168.095 212.547 167.411 212.491C166.727 212.433 165.985 212.832 165.302 212.89C163.762 213.06 162.45 212.319 161.024 211.92C160.112 211.636 158.915 211.465 158.229 212.319C157.545 213.175 156.348 211.978 157.032 211.123C158.63 209.128 161.309 210.269 163.248 210.894C163.932 211.123 164.618 211.293 165.302 211.18C165.985 211.066 166.613 210.78 167.297 210.78C167.696 210.78 170.092 211.579 170.092 210.894C170.034 209.812 171.746 209.812 171.803 210.894ZM150.132 198.527C150.646 191.288 151.216 183.993 151.729 176.756C151.729 176.357 151.957 176.129 152.242 176.015C152.242 175.558 152.641 175.159 153.098 175.159C155.379 175.045 157.66 174.932 159.884 174.818C160.341 174.818 160.74 175.217 160.74 175.672C160.74 176.129 160.341 176.528 159.884 176.528C157.718 176.642 155.55 176.756 153.383 176.812C152.87 184.051 152.299 191.288 151.786 198.527C151.786 199.609 150.075 199.609 150.132 198.527ZM156.691 204.455C155.721 204.056 154.637 204.341 154.01 205.082C153.269 205.936 152.071 204.683 152.813 203.884C153.611 202.972 154.866 202.459 156.063 202.573C157.431 202.687 158.287 203.485 159.256 204.397C160.455 205.537 162.28 205.024 163.762 204.91C165.472 204.796 167.241 204.625 168.951 204.511C170.034 204.455 170.034 206.164 168.951 206.221C167.297 206.335 165.701 206.449 164.046 206.62C162.679 206.734 161.081 207.076 159.713 206.677C159.085 206.507 158.572 206.106 158.059 205.651C157.66 205.195 157.261 204.739 156.691 204.455ZM85.0081 42.3642C85.0081 42.8201 84.6089 43.2191 84.1527 43.2191C84.0386 43.2191 83.9245 43.2191 83.8676 43.2191C83.8106 43.2191 83.7536 43.2191 83.6967 43.2191H83.6395C83.5826 43.2191 83.5824 43.2191 83.5253 43.2191C83.4114 43.2191 83.3543 43.2761 83.2403 43.2761C83.0691 43.3331 82.8982 43.3901 82.727 43.4472C82.67 43.4472 82.6702 43.4472 82.6132 43.5041C82.5561 43.561 82.4419 43.5612 82.3849 43.6181C82.2138 43.7321 82.0428 43.7891 81.8717 43.9031C81.8146 43.9031 81.8148 43.96 81.7578 43.96L81.7007 44.0171C81.6437 44.0741 81.6435 44.0741 81.5866 44.131C81.4725 44.245 81.3016 44.359 81.1875 44.53C81.1305 44.5871 81.0733 44.644 81.0163 44.701C81.0163 44.7579 80.9592 44.758 80.9592 44.815C80.674 45.214 80.218 45.328 79.7618 45.1C79.3627 44.8719 79.1917 44.3021 79.4766 43.9031C80.5602 42.3643 82.3279 41.3954 84.2098 41.3954C84.666 41.5094 85.0081 41.9083 85.0081 42.3642ZM91.5661 125.746C91.6232 125.575 91.6232 125.689 91.5661 125.746V125.746ZM90.9389 126.544C90.8817 126.601 90.8248 126.658 90.9389 126.544V126.544ZM91.5092 124.15C91.5661 124.207 91.5661 124.264 91.5092 124.15V124.15ZM90.2546 126.886C90.1977 126.886 90.1406 126.886 90.2546 126.886V126.886ZM88.6009 125.233C88.6009 125.176 88.6009 125.176 88.6009 125.119C88.6009 125.119 88.6009 125.176 88.6009 125.233ZM89.8554 126.886C89.8554 126.886 89.9125 126.886 89.9695 126.886C89.9125 126.886 89.9125 126.886 90.0266 126.886H89.9695C90.0266 126.886 90.0263 126.886 90.0834 126.886C90.0834 126.886 90.0836 126.886 90.0266 126.886C90.1407 126.886 90.2545 126.886 90.3686 126.886H90.3118H90.3686C90.4255 126.886 90.4257 126.886 90.4827 126.829C90.5398 126.829 90.5969 126.772 90.5969 126.772C90.711 126.715 90.768 126.658 90.8821 126.601C90.939 126.544 90.996 126.544 91.053 126.487C91.053 126.487 91.053 126.487 90.9958 126.487C91.053 126.43 91.1099 126.373 91.224 126.259C91.281 126.202 91.2811 126.145 91.3381 126.145C91.4522 125.974 91.5663 125.803 91.6232 125.632C91.6232 125.632 91.6232 125.632 91.6232 125.689C91.6232 125.632 91.6804 125.575 91.6804 125.575C91.7373 125.461 91.7373 125.404 91.7373 125.29C91.7373 125.176 91.7941 125.119 91.7941 125.005C91.7372 125.29 91.7941 125.005 91.7941 124.891C91.7941 124.834 91.7941 124.777 91.7941 124.72C91.7941 124.72 91.7941 124.663 91.7941 124.606C91.7941 124.606 91.7941 124.606 91.7941 124.549C91.7941 124.549 91.7941 124.549 91.7941 124.606C91.7941 124.549 91.7941 124.549 91.7941 124.492C91.7941 124.435 91.7944 124.435 91.7373 124.378V124.321C91.6804 124.264 91.6804 124.207 91.6804 124.264C91.6804 124.207 91.6232 124.15 91.6232 124.093C91.6232 124.036 91.5661 124.036 91.5661 123.979V124.036C91.5092 123.979 91.4522 123.922 91.3952 123.865C91.3381 123.865 91.3381 123.808 91.281 123.808C91.224 123.808 91.2242 123.751 91.1672 123.751C91.1101 123.751 91.0528 123.694 90.9389 123.694C90.8248 123.694 90.5969 123.694 90.8821 123.694C90.711 123.694 90.5396 123.694 90.3686 123.694C90.3115 123.694 90.2546 123.694 90.2546 123.694C90.1406 123.694 90.0836 123.751 89.9695 123.751C89.9125 123.751 89.8553 123.808 89.7983 123.808C89.7413 123.865 89.6844 123.865 89.6272 123.922C89.5703 123.979 89.4563 124.036 89.3992 124.093C89.3423 124.093 89.3421 124.15 89.2851 124.15C89.171 124.264 89.057 124.378 88.9429 124.492C88.9429 124.549 88.8861 124.549 88.8861 124.606C88.8291 124.663 88.8289 124.777 88.772 124.834V124.891C88.772 124.948 88.772 124.948 88.772 125.005C88.772 125.005 88.772 125.062 88.772 125.119V125.176C88.772 125.176 88.772 125.176 88.772 125.119C88.772 125.176 88.772 125.233 88.772 125.233C88.772 125.29 88.772 125.347 88.772 125.347C88.772 125.404 88.772 125.404 88.772 125.404C88.8289 125.86 88.6008 126.259 88.1446 126.373C87.7453 126.487 87.1752 126.202 87.1182 125.803C87.0041 125.119 87.0611 124.492 87.4034 123.865C87.6885 123.352 88.0877 122.896 88.6009 122.554C89.4563 121.985 90.5396 121.7 91.5661 121.985C92.7637 122.269 93.5051 123.295 93.6762 124.492C93.9044 126.658 91.7943 128.938 89.5703 128.368C89.1141 128.254 88.8859 127.741 89 127.342C88.8859 127 89.3992 126.772 89.8554 126.886ZM91.7373 124.72C91.7373 124.777 91.7373 124.777 91.7373 124.834C91.7373 124.834 91.7373 124.834 91.7373 124.72ZM88.1446 50.6854C88.3156 51.1413 88.2587 51.5972 87.8594 51.8822C87.5173 52.1103 86.8899 51.9962 86.6619 51.5972C86.0916 50.2864 85.4645 48.9755 84.8942 47.6646C84.7232 47.2087 84.7801 46.7527 85.1794 46.4678C85.5215 46.2399 86.1486 46.3539 86.3767 46.7527C86.947 48.0067 87.5743 49.3745 88.1446 50.6854ZM90.8249 51.0844C90.7108 50.2294 90.4827 49.4314 90.1975 48.6336C90.1406 48.4626 90.0266 48.2346 89.9695 48.0636C89.9695 48.0067 89.9124 47.9496 89.9124 47.9496C89.8554 47.8357 89.7985 47.7217 89.7415 47.6077C89.5704 47.2087 89.3423 46.8098 89.1141 46.4678C88.8861 46.0689 89.0571 45.5559 89.3992 45.2709C89.7985 45.0429 90.3687 45.214 90.5969 45.5559C91.5093 47.0947 92.1364 48.8615 92.4215 50.6283C92.4785 51.0842 92.3075 51.5403 91.8513 51.6542C91.452 51.8253 90.8819 51.5403 90.8249 51.0844ZM89.1712 40.8824C88.772 41.1673 88.2588 40.9394 87.9737 40.5974C87.6885 40.1985 87.9165 39.6855 88.2588 39.4005C89.8554 38.3746 92.0223 38.0898 93.7901 38.7736C94.2463 38.9446 94.4745 39.3436 94.3604 39.7995C94.2463 40.1985 93.7332 40.5404 93.3341 40.3695C93.1629 40.3124 92.9349 40.2555 92.7638 40.1985C92.6497 40.1985 92.5356 40.1414 92.4787 40.1414C92.4215 40.1414 92.3644 40.1414 92.3644 40.1414C91.9653 40.0845 91.5663 40.0845 91.1672 40.1414H91.1101C91.0531 40.1414 91.053 40.1414 90.9958 40.1414C90.8819 40.1414 90.7678 40.1985 90.7107 40.1985C90.5396 40.2555 90.3687 40.3124 90.1975 40.3695C90.1406 40.3695 90.0266 40.4264 89.9695 40.4835C89.9695 40.4835 89.7985 40.5404 89.7415 40.5974C89.5133 40.6545 89.3423 40.7685 89.1712 40.8824ZM71.3217 61.2862C71.6069 61.6281 71.6639 62.1412 71.3217 62.4831C71.0366 62.7681 70.4094 62.825 70.1242 62.4831C68.3564 60.2603 65.6192 58.9495 62.7678 59.0064C61.6843 59.0064 61.6843 57.2967 62.7678 57.2967C66.0183 57.2396 69.2118 58.7214 71.3217 61.2862ZM292.47 78.6693C292.186 77.5864 291.957 76.5035 291.616 75.4776C291.045 73.5399 290.417 71.602 289.619 69.7213C288.079 66.1877 286.026 62.8821 282.947 60.4882C280.266 58.3795 277.13 57.0686 273.88 56.0427C272.283 55.5299 270.687 55.1309 269.033 54.6749C267.264 54.219 265.44 53.706 263.673 53.25C261.904 52.851 260.08 52.6231 258.311 52.9081C256.316 53.1931 254.547 54.1619 252.78 55.1309C248.959 57.2396 245.138 59.3483 241.489 61.6851C234.759 66.0167 228.429 71.1462 223.64 77.5864C223.582 77.5294 223.526 77.5294 223.468 77.4723C223.183 77.2445 222.784 77.1304 222.441 77.3585C221.701 77.8144 220.617 77.9283 219.762 78.2133C218.679 78.5553 217.652 78.9542 216.626 79.4101C214.687 80.3221 212.862 81.5759 211.55 83.2858C209.383 86.0785 208.3 90.011 209.325 93.4306C205.162 93.3736 201.228 95.1404 197.921 97.5912C193.872 100.669 190.792 104.658 188.111 108.933C185.26 113.379 182.866 117.995 180.072 122.497C177.905 125.974 174.482 131.331 169.693 129.622C167.355 128.767 165.302 127 162.735 127.057C161.367 127.114 160.112 127.57 159.2 128.482C158.231 125.575 156.177 123.124 153.497 121.472C149.676 119.078 145.228 118.964 140.837 118.964C138.442 118.964 136.047 118.907 133.709 118.508C131.713 118.109 129.717 117.539 127.835 116.741C123.843 115.088 120.193 112.637 116.886 109.959C112.894 106.824 109.244 103.291 105.595 99.757C105.367 99.529 105.082 99.4719 104.796 99.529C104.283 91.7778 103.998 83.9696 103.713 76.2186C103.713 75.5917 103.656 74.9646 103.656 74.3377C109.016 72.9699 114.434 71.545 119.794 70.1772C120.308 70.0632 120.878 69.8922 121.391 69.7782C122.075 69.6073 122.132 68.8092 121.79 68.3533C117.57 63.11 113.464 57.8665 109.301 52.5662C107.077 49.7735 104.91 46.9808 102.686 44.1881C100.633 41.6234 98.6947 38.8307 96.2995 36.5509C94.7598 35.0691 93.1058 33.8153 91.224 32.7894C92.4785 32.5044 93.8471 32.0483 95.2159 31.2505C98.8654 29.0846 102.629 20.0796 98.0103 13.8104C89.8556 25.2662 82.499 16.8881 70.7515 22.4733C61.6843 26.7479 62.0266 43.6181 65.9613 51.8822C63.2241 51.7113 60.4297 52.6231 58.4908 54.5609C55.2403 57.8095 54.8412 63.395 57.6354 67.0426C59.1182 69.0373 61.4561 70.2341 63.9083 70.6332C60.6009 78.5552 57.1222 86.4204 53.3585 94.1146C53.2444 94.3426 53.2443 94.5136 53.3014 94.6845C21.1954 124.948 1.2933 164.331 0.0387162 200.066C-0.417495 213.117 3.17534 224.345 9.90446 231.013C16.5765 237.625 25.5295 239.164 32.6008 239.164C33.3993 239.164 34.1405 239.164 34.8249 239.106C39.9001 238.879 44.9754 237.967 49.8798 237.055C53.4155 236.428 57.0651 235.745 60.7148 235.346C67.7291 234.604 74.7435 234.775 81.7007 235.915C82.8982 236.143 84.1527 236.37 85.3504 236.599C89.1141 237.34 93.0488 238.081 96.9837 237.909C102.743 237.681 107.648 235.346 110.67 231.526C112.723 230.843 114.662 229.987 116.43 228.791C116.373 228.905 116.316 229.075 116.259 229.19C115.974 229.76 116.316 230.444 117 230.5C118.882 230.558 120.764 230.729 122.588 230.899C122.532 231.64 122.475 232.438 122.418 233.18C122.418 233.521 122.703 233.921 123.045 233.977C129.603 235.288 136.161 236.37 142.833 237.17C145.228 237.454 147.623 237.681 150.018 237.853C150.645 238.138 151.273 238.366 151.9 238.651C154.98 240.076 157.945 241.615 160.854 243.381C161.367 243.667 161.88 243.381 162.107 242.868C162.679 241.501 163.248 240.132 163.82 238.765C166.442 238.993 169.065 239.563 171.346 241.044C171.803 241.33 172.486 241.044 172.601 240.531C173.742 236.143 174.939 231.811 175.851 227.366C176.764 222.977 177.391 218.532 177.905 214.087C178.304 210.211 178.588 206.279 178.817 202.403C180.299 198.812 181.725 195.278 183.208 191.689C185.204 186.843 187.199 182.055 189.196 177.211C189.367 176.812 189.024 176.243 188.625 176.185C185.432 175.73 182.182 175.217 178.988 174.646C178.988 173.734 178.931 172.88 178.931 171.968C178.931 171.455 178.532 171.171 178.075 171.113C169.236 170.371 160.397 169.802 151.558 169.632C149.505 169.233 147.452 168.89 145.399 168.548C141.35 167.864 137.244 167.181 133.195 166.611C132.739 166.269 131.827 166.439 131.77 167.237C131.713 168.149 131.713 169.004 131.656 169.916C131.314 169.916 130.914 169.916 130.572 169.973C129.888 170.03 129.603 170.714 129.831 171.227C129.774 171.341 129.717 171.455 129.717 171.57C129.375 173.564 129.09 175.558 128.748 177.554C126.238 177.382 123.729 177.44 121.448 178.522C119.053 179.606 116.886 181.201 115.004 183.081C113.065 185.019 111.468 187.3 110.157 189.693C109.187 191.574 108.161 193.398 107.02 195.164C106.849 195.449 106.678 195.677 106.507 195.962C104.968 188.667 99.8921 185.191 95.9002 184.45C93.3911 183.993 90.8819 184.222 88.4868 184.45C86.3767 184.62 84.3239 184.791 82.3281 184.564C79.7618 184.279 77.3666 183.31 74.7433 182.284C72.9755 181.6 71.0939 180.859 69.212 180.346C66.7028 179.719 63.5662 179.434 60.5439 180.63C60.4868 180.46 60.4866 180.346 60.4297 180.175C59.8594 178.351 59.0039 176.927 58.1487 175.558C57.8635 175.103 57.6354 174.704 57.3504 174.247C56.0957 172.025 55.4683 169.973 55.5824 167.922C55.7534 164.73 57.4073 162.451 59.0611 160.17L59.3462 159.828C60.4868 158.232 63.11 154.072 62.2546 149.911L60.6009 150.253C61.3422 153.787 59.0041 157.435 57.9776 158.86L57.6925 159.202C55.9818 161.537 54.0999 164.16 53.9287 167.864C53.8147 170.259 54.442 172.652 55.9247 175.159C56.2098 175.616 56.4948 176.071 56.723 176.528C57.5213 177.838 58.3197 179.093 58.833 180.745C58.89 180.973 58.947 181.201 59.0039 181.43C57.6925 182.169 56.381 183.253 55.2404 184.791L55.1263 184.963L55.0692 185.191C54.7841 187.186 55.8107 188.725 56.9513 189.18C57.9778 189.579 59.0612 189.238 59.7454 188.268C60.7719 186.787 61.0571 184.506 60.8289 182.398C63.11 181.43 65.7903 181.315 68.7556 182.055C70.5234 182.512 72.3484 183.253 74.0592 183.937C76.6254 184.963 79.3056 185.989 82.0429 186.33C84.21 186.615 86.4339 186.388 88.5439 186.216C90.939 185.989 93.2199 185.817 95.501 186.216C99.1506 186.901 103.77 190.206 104.91 197.33C103.827 199.553 96.9838 215.055 109.358 230.386C106.678 233.977 102.116 236.086 96.8128 236.314C93.049 236.484 89.228 235.745 85.5784 235.06C84.3809 234.833 83.1262 234.604 81.8717 234.376C74.8004 233.18 67.5579 233.009 60.4297 233.749C56.7799 234.148 53.0734 234.833 49.4808 235.458C44.6335 236.314 39.6152 237.226 34.654 237.454C27.6966 237.795 17.9451 236.713 10.9879 229.817C4.60094 223.548 1.23644 212.718 1.63563 200.18C2.83318 164.786 22.6213 125.746 54.5561 95.7673C58.4338 101.866 64.3647 106.596 71.1508 109.161C78.3361 111.84 86.4339 111.783 93.6762 109.161C97.8391 107.679 101.66 105.399 104.91 102.379C105.081 102.208 105.195 102.037 105.195 101.866C111.126 107.622 117.285 113.492 124.699 117.254C128.462 119.192 132.511 120.446 136.731 120.674C141.293 120.959 146.197 120.275 150.589 122.041C154.238 123.523 157.032 126.544 157.888 130.363C156.462 132.528 155.664 135.093 155.721 137.772C155.778 138.855 157.489 138.855 157.431 137.772C157.375 135.606 157.945 133.497 159.029 131.674C159.314 131.616 159.542 131.389 159.655 131.104C160.112 129.337 161.88 128.653 163.533 128.938C165.757 129.28 167.525 130.933 169.693 131.559C174.311 132.927 177.905 128.938 180.299 125.518C185.945 117.311 189.595 107.508 197.123 100.669C200.829 97.3632 205.505 94.7985 210.58 95.3685C211.264 95.4254 211.55 94.6276 211.322 94.0576C209.782 90.809 210.923 86.5914 213.261 84.0267C214.572 82.5449 216.283 81.519 218.108 80.7781C219.02 80.3791 219.933 80.0941 220.845 79.8091C221.473 79.6382 222.156 79.4672 222.784 79.2392C229.114 84.3686 235.957 88.9281 243.143 92.8037C243.143 92.9177 243.199 93.0317 243.199 93.0887C239.664 98.0472 240.691 104.544 239.55 110.244C239.265 111.726 238.752 113.207 238.01 114.518C237.155 116.057 236.071 117.425 235.158 118.964C233.219 122.099 232.82 125.518 232.479 129.109C232.136 132.585 231.453 135.948 230.197 139.254C228.886 142.559 227.118 145.694 225.236 148.658C221.587 154.471 217.652 160.17 213.489 165.699C208.87 171.854 203.68 177.668 197.408 182.113C196.495 182.74 197.35 184.222 198.262 183.594C205.391 178.522 211.037 171.911 216.169 164.9C218.735 161.367 221.244 157.719 223.696 154.129C226.205 150.424 228.657 146.663 230.54 142.616C232.479 138.57 233.619 134.352 234.076 129.907C234.304 127.627 234.475 125.347 235.102 123.124C235.73 120.959 237.041 119.135 238.295 117.311C239.436 115.601 240.348 113.834 240.861 111.897C241.375 110.016 241.603 108.078 241.717 106.14C242.002 102.436 242.002 98.3891 243.883 95.0835C244.112 94.6274 244.511 94.2286 244.681 93.7726C248.844 94.0007 252.951 93.8296 257.058 93.3736C261.163 92.9177 265.211 92.2337 269.318 91.8918C269.775 91.8349 270.174 91.8349 270.629 91.8349C270.8 92.1768 271.028 92.5187 271.257 92.8606C271.712 93.4877 272.398 94.0007 273.196 93.7726C273.936 93.5446 274.337 92.7467 274.507 92.0058C274.507 91.8918 274.564 91.8347 274.564 91.7209H274.622C274.736 91.9487 274.906 92.1768 275.077 92.4048C275.933 93.4877 277.473 93.5446 278.327 92.4048C278.556 92.1198 278.67 91.7778 278.784 91.4359C279.583 91.3218 280.381 91.1509 281.179 90.923C282.775 90.4671 284.487 89.726 285.456 88.3013C286.426 86.9333 286.368 85.2236 285.57 83.7987C285.342 83.3427 285.057 83.0008 284.714 82.6589C284.772 81.5759 284.828 80.4931 284.828 79.4101C284.886 79.4672 284.943 79.5812 285.001 79.6382C286.198 81.0631 287.451 82.9437 289.278 83.6277C290.988 84.2546 292.585 83.1718 292.755 81.348C292.869 80.3221 292.641 79.4672 292.47 78.6693ZM187.028 177.668C184.291 184.279 181.61 190.889 178.873 197.501C178.987 194.082 178.988 190.605 178.988 187.186C178.988 183.594 178.931 180.005 178.873 176.414C181.554 176.87 184.291 177.269 187.028 177.668ZM58.2056 187.186C57.8635 187.699 57.5214 187.528 57.4073 187.528C56.8942 187.3 56.438 186.616 56.5521 185.59C57.2934 184.62 58.1487 183.879 59.0611 183.253C59.1182 184.735 58.89 186.216 58.2056 187.186ZM122.646 229.133C121.163 229.019 119.68 228.847 118.198 228.791C118.597 227.993 118.939 227.195 119.281 226.398C120.935 224.859 122.36 223.035 123.273 220.983C123.045 223.718 122.817 226.398 122.646 229.133ZM160.796 241.386C158.857 240.246 156.805 239.164 154.752 238.138C157.146 238.308 159.542 238.422 161.937 238.594C161.538 239.506 161.195 240.474 160.796 241.386ZM133.253 168.377C135.933 168.776 138.613 169.175 141.236 169.632C141.179 169.632 141.065 169.632 141.008 169.632C138.385 169.688 135.762 169.746 133.195 169.86C133.195 169.347 133.253 168.834 133.253 168.377ZM131.142 172.025C131.142 171.911 131.142 171.796 131.142 171.684C143.175 171.113 155.265 171.283 167.355 172.083C170.605 172.309 173.856 172.538 177.106 172.822C177.448 190.32 177.734 208.044 174.426 225.314C173.571 229.931 172.372 234.49 171.175 238.993C169.007 237.795 166.557 237.34 164.161 237.055C161.082 236.769 157.944 236.713 154.866 236.484C148.136 236.029 141.407 235.288 134.735 234.262C131.2 233.693 127.664 233.065 124.185 232.382C124.528 227.424 124.984 222.408 125.44 217.449C127.892 217.962 130.344 218.247 132.797 218.077C134.507 217.962 138.613 217.506 137.7 214.77C137.415 213.858 136.674 213.175 135.99 212.547C135.02 211.692 133.994 211.008 132.91 210.325C132.568 210.097 132.226 209.926 131.941 209.756C133.025 210.154 134.051 210.553 135.134 211.008C136.959 211.75 138.841 212.946 140.894 213.004C142.605 213.06 144.316 212.092 144.772 210.381C145.228 208.557 144.145 206.962 142.947 205.708C143.745 205.537 144.487 205.252 145.171 204.625C148.421 201.661 143.859 198.072 141.692 196.19C138.898 193.911 135.819 191.973 132.511 190.49C131.143 189.863 129.717 189.352 128.348 188.895C129.432 187.699 131.086 187.186 132.797 187.186C135.819 187.186 138.613 188.725 141.521 189.464C143.859 190.092 147.11 190.32 148.479 187.927C149.904 185.476 148.136 182.568 145.969 181.315C144.658 180.574 143.175 180.117 141.692 179.719C140.153 179.263 138.556 178.921 136.959 178.636C134.792 178.237 132.625 177.895 130.401 177.668C130.572 175.786 130.857 173.906 131.142 172.025ZM135.99 215.568C135.99 215.626 135.99 215.626 135.99 215.568V215.568ZM136.047 215.454C136.047 215.397 136.047 215.397 136.047 215.454V215.454ZM105.195 200.978C105.481 200.579 105.766 200.122 105.994 199.723C107.249 197.785 108.503 195.791 109.701 193.797C110.784 191.915 111.696 189.921 112.894 188.097C114.32 185.931 116.088 183.937 118.198 182.342C120.023 180.973 122.132 179.606 124.413 179.32C126.923 178.979 129.489 179.32 131.998 179.662C134.906 180.061 137.758 180.518 140.552 181.315C142.947 181.943 146.597 182.74 147.053 185.646C147.509 188.725 143.631 188.382 141.749 187.869C138.898 187.128 136.161 185.703 133.195 185.532C130.914 185.418 128.405 185.989 126.809 187.755C126.638 187.983 126.466 188.212 126.295 188.44C124.356 187.927 122.36 187.528 120.308 187.356C119.224 187.242 119.224 188.951 120.308 189.066C126.809 189.751 133.081 192.2 138.385 196.02C139.697 196.988 140.951 198.014 142.092 199.098C143.004 199.952 145 201.547 144.088 202.972C143.403 204.056 142.149 204.17 140.951 203.998C138.499 201.833 135.705 199.952 132.797 198.471C128.862 196.475 124.641 195.164 120.308 194.537C119.851 194.481 119.395 194.651 119.281 195.108C119.167 195.507 119.395 196.076 119.851 196.134C126.923 197.102 133.709 200.01 139.183 204.625C140.381 205.651 142.035 206.848 142.719 208.387C143.061 209.128 143.061 210.097 142.434 210.667C141.864 211.18 141.008 211.237 140.267 211.123C139.354 211.008 138.499 210.553 137.7 210.211C136.902 209.812 136.047 209.469 135.191 209.128C133.366 208.387 131.542 207.703 129.66 207.076C126.695 206.106 123.729 205.309 120.65 204.625C120.593 204.625 120.536 204.569 120.479 204.569C119.509 204.283 118.54 203.942 117.513 203.942C117.456 203.942 117.342 203.942 117.285 203.942C117.171 203.942 117.057 203.884 116.886 203.884C115.802 203.713 115.346 205.367 116.43 205.537C117.627 205.766 118.882 205.994 120.079 206.221C120.992 206.507 121.904 206.848 122.76 207.19C125.326 208.216 127.835 209.357 130.23 210.724C132.112 211.75 134.165 212.89 135.534 214.542C135.591 214.656 135.477 214.485 135.648 214.656C135.705 214.714 135.762 214.77 135.762 214.828C135.819 214.884 135.819 214.941 135.876 214.998C135.876 214.998 135.876 214.998 135.933 215.113C135.933 215.169 135.933 215.227 135.99 215.283V215.341C135.933 215.397 135.933 215.454 135.876 215.454C135.876 215.454 135.876 215.454 135.819 215.454C135.705 215.511 135.648 215.568 135.534 215.626C135.534 215.626 135.305 215.74 135.134 215.74C134.735 215.854 134.279 215.967 133.823 216.024C128.234 216.878 122.532 214.77 117.285 213.231C116.202 212.946 115.746 214.6 116.829 214.884C118.711 215.397 120.593 216.024 122.532 216.537C122.532 216.878 122.475 217.221 122.418 217.564C121.961 220.014 120.593 222.179 118.996 223.947C116.715 226.398 113.92 228.049 110.898 229.19C101.318 217.848 103.371 206.393 105.195 200.978ZM54.2138 95.3114C54.2709 95.3114 54.2709 95.3114 54.328 95.3114C54.385 95.4254 54.4991 95.5394 54.5561 95.6533L54.2138 95.3114ZM83.6395 109.332C76.5113 109.617 69.44 107.337 63.7374 103.063C60.5439 100.669 57.8066 97.7051 55.7536 94.2855C55.6397 94.0576 55.4115 93.9436 55.1835 93.8867C58.8902 86.2495 62.3116 78.4982 65.6192 70.6332C67.1019 70.5761 68.5274 70.2341 69.8391 69.4932C70.2381 69.2653 70.4094 68.7523 70.1812 68.3533C69.9532 67.9545 69.4398 67.7835 69.0408 68.0114C65.7903 69.8351 61.2283 68.8663 58.9471 65.9596C56.7231 62.9959 57.0081 58.3226 59.6314 55.7008C62.2546 53.0791 66.9307 52.7941 69.8962 55.0168C70.2953 55.3018 70.8086 55.2449 71.0937 54.8459C71.3789 54.4469 71.3219 53.934 70.9228 53.649C70.6946 53.4781 70.4665 53.3641 70.2954 53.1931L71.7211 53.25C77.6519 49.6024 76.6823 43.7891 78.222 39.4576C80.446 33.2453 83.7536 33.3593 87.7455 33.0744C93.6764 34.8981 97.3829 40.1416 101.033 44.758C105.31 50.1154 109.472 55.5297 113.749 60.9442C115.688 63.3949 117.627 65.8456 119.566 68.2964C115.46 69.3792 111.297 70.4622 107.191 71.545C105.595 71.944 103.998 72.343 102.401 72.7419C102.059 72.8559 101.774 73.198 101.774 73.5399C102.059 80.4931 102.344 87.4463 102.686 94.3995C102.8 96.6223 102.915 98.845 103.086 101.125C103.086 101.239 103.143 101.353 103.143 101.41C97.7821 106.197 90.8249 108.99 83.6395 109.332ZM272.739 91.7209C272.739 91.7209 272.739 91.7778 272.739 91.7209C272.682 91.6638 272.625 91.6068 272.625 91.5499C272.682 91.5499 272.739 91.5499 272.797 91.5499C272.797 91.6068 272.797 91.6638 272.739 91.7209ZM290.816 81.6899C289.733 82.8299 287.624 79.8662 287.052 79.2392C284.373 76.1045 281.806 72.799 279.468 69.3792C279.184 68.9233 278.841 68.4673 278.556 68.0683C278.271 67.6124 278.043 67.4985 277.529 67.3276C276.561 66.9286 275.59 66.5865 274.622 66.3017C272.797 65.7887 270.914 65.5037 269.089 65.7887C265.44 66.4155 263.274 69.3223 262.817 72.8559C262.532 75.3067 262.303 78.6692 264.584 80.322C266.067 81.405 268.063 81.3479 269.773 81.405C271.941 81.519 274.108 81.6329 276.218 81.7469C276.787 81.8038 277.415 81.804 278.043 81.804C278.899 81.8609 279.811 82.0319 280.666 82.2028C282.32 82.6018 284.259 84.0267 283.974 85.9645C283.745 87.7882 281.464 88.5862 279.925 88.9281C278.043 89.3271 276.104 89.4981 274.165 89.6121C271.999 89.7831 269.775 89.84 267.607 90.1819C267.549 90.1819 267.549 90.1819 267.493 90.239C265.782 90.41 264.014 90.5809 262.303 90.8659C258.141 91.4359 253.978 92.0058 249.757 92.0628C248.046 92.1198 246.336 92.0058 244.625 91.9487C244.511 91.6638 244.34 91.4359 243.941 91.2649C241.888 90.1821 239.835 88.9852 237.839 87.7882C233.847 85.3376 229.913 82.6589 226.205 79.8091C225.75 79.4672 225.351 79.1253 224.952 78.7832C228.828 73.5968 233.733 69.2082 239.037 65.5037C242.401 63.1669 245.88 61.0582 249.472 59.0064C251.24 57.9805 253.065 57.0117 254.834 56.0427C256.372 55.2449 258.026 54.6178 259.795 54.5609C261.562 54.504 263.216 54.9028 264.926 55.3589C266.523 55.8148 268.063 56.2137 269.66 56.6127C272.739 57.4105 275.875 58.2655 278.727 59.7473C281.578 61.2291 284.03 63.3379 285.799 66.0736C287.965 69.3792 289.276 73.0838 290.246 76.8455C290.475 77.7573 290.702 78.6693 290.93 79.5812C291.045 80.2081 291.329 81.234 290.816 81.6899ZM276.274 72.115C275.42 71.0891 274.05 70.4622 272.797 69.9492C270.914 69.1513 268.975 68.5814 266.922 68.3533C269.773 66.3015 273.994 67.7835 277.074 68.9804C278.955 71.7731 280.95 74.4517 283.062 77.0735C283.062 78.4413 283.062 79.8091 283.004 81.1769C282.035 80.721 280.95 80.436 279.867 80.265C279.013 80.151 278.213 80.0372 277.359 79.9801C277.244 78.6123 277.244 77.3014 277.244 75.9336C277.359 74.5658 277.244 73.198 276.274 72.115ZM273.423 75.3067C271.485 74.5087 270.344 72.6849 269.945 70.6902C270.914 70.9751 271.884 71.317 272.797 71.7731C273.994 72.3429 275.305 72.9699 275.534 74.3948C275.762 75.8196 275.476 77.4154 275.59 78.8403C275.59 79.1822 275.648 79.5812 275.648 79.9231C275.534 79.9231 275.362 79.9231 275.249 79.9231C275.135 79.9231 275.077 79.9231 274.963 79.9801C274.622 79.9801 274.279 79.9231 273.88 79.9231C273.823 78.6692 273.765 77.3585 273.823 76.1045C273.88 75.7626 273.709 75.4206 273.423 75.3067ZM268.748 75.5346C266.809 74.7937 265.554 72.9699 265.041 71.0322C265.155 70.6901 265.325 70.2912 265.554 70.0063C266.466 70.0632 267.322 70.1772 268.235 70.3482C268.462 72.9128 269.887 75.4776 272.169 76.6745C272.169 77.7573 272.169 78.8403 272.225 79.9231C271.427 79.8662 270.629 79.8662 269.831 79.8091C269.66 79.8091 269.488 79.8091 269.261 79.8091C269.203 78.7263 269.261 77.5864 269.374 76.5035C269.374 75.9336 269.033 75.6486 268.748 75.5346ZM267.549 79.5812C266.581 79.4672 265.668 79.1822 265.098 78.4413C264.242 77.3014 264.299 75.5917 264.413 74.2237C264.413 74.1098 264.413 74.0527 264.413 73.9387C265.155 75.1927 266.238 76.2186 267.607 76.9024C267.549 77.7573 267.549 78.6693 267.549 79.5812ZM98.8086 159.258C100.976 156.295 101.774 152.533 101.147 148.943C100.862 147.404 100.348 145.922 99.5498 144.554C98.7515 143.129 97.6111 142.046 96.5276 140.793C95.5012 139.596 94.5315 138.285 94.3604 136.632C94.1322 134.865 94.9878 133.383 95.9574 132.015C96.8698 130.819 97.725 129.679 98.1243 128.197C98.4664 126.943 98.4664 125.575 98.1812 124.264C97.6111 121.643 95.9002 119.135 93.3341 118.109C92.3076 117.71 92.7637 116.057 93.7901 116.456C96.9837 117.71 99.2077 120.674 99.835 123.979C100.12 125.404 100.12 126.886 99.778 128.311C99.4357 129.907 98.5805 131.218 97.6111 132.528C96.6416 133.839 95.558 135.264 96.0711 136.974C96.5275 138.627 98.0103 139.88 99.0938 141.134C103.656 146.321 104.283 154.414 100.177 160.056C99.6069 160.968 98.1243 160.114 98.8086 159.258ZM97.9532 83.2858C98.1814 83.6846 98.0673 84.2546 97.6681 84.4827C95.216 85.7935 91.7945 84.7676 90.5969 82.2599C90.4259 81.8609 90.4828 81.348 90.8821 81.0631C91.2811 80.835 91.8513 80.949 92.0793 81.348C92.1364 81.4619 92.1937 81.6329 92.3076 81.7469C92.3647 81.8038 92.3646 81.8609 92.4215 81.9178C92.4215 81.9178 92.4215 81.9749 92.4787 81.9749C92.6497 82.2028 92.8208 82.3738 93.049 82.5449C93.1059 82.6018 93.1629 82.6018 93.2199 82.6589C93.3339 82.7158 93.448 82.8297 93.5621 82.8868C93.6762 82.9437 93.7903 83.0008 93.9042 83.0578H93.9613C94.0185 83.0578 94.0753 83.1147 94.1324 83.1147C94.2463 83.1718 94.4175 83.1718 94.5316 83.2287C94.5886 83.2287 94.6456 83.2287 94.7027 83.2858H94.8168C95.045 83.2858 95.2728 83.3427 95.558 83.2858C95.6151 83.2858 95.6722 83.2858 95.7293 83.2858C95.7293 83.2858 95.729 83.2858 95.7861 83.2858C95.7861 83.2858 95.7861 83.2858 95.8431 83.2858C95.9572 83.2858 96.0713 83.2287 96.1854 83.2287C96.2995 83.1718 96.4707 83.1718 96.5846 83.1147C96.6417 83.0578 96.6987 83.0578 96.8128 83.0008C97.2119 82.7728 97.7252 82.8868 97.9532 83.2858ZM89.9695 152.875C90.2546 154.414 91.452 155.668 92.9918 155.725C94.7597 155.839 96.3564 154.357 96.8128 152.761C97.269 151.108 96.4704 149.341 94.9307 148.601C93.3339 147.86 91.2242 147.974 89.9695 149.342C89.6844 149.684 89.6274 150.253 89.9695 150.538C90.0266 150.595 90.0834 150.652 90.1406 150.652C89.8554 151.393 89.7984 152.134 89.9695 152.875ZM92.3076 153.73C92.1937 153.673 92.3076 153.73 92.3076 153.73V153.73ZM91.5661 151.906C91.5661 151.906 91.5661 151.849 91.5661 151.792C91.5661 151.735 91.5661 151.678 91.5661 151.621C91.5661 151.564 91.6232 151.507 91.6232 151.393C91.6232 151.336 91.6804 151.279 91.6804 151.222V151.165C91.7373 151.108 91.7372 151.051 91.7941 150.994L91.8513 150.937C91.8513 150.88 91.9084 150.88 91.9084 150.88C91.9654 150.823 92.0223 150.766 92.0793 150.709L92.1364 150.652C92.1935 150.595 92.3075 150.595 92.3644 150.538C92.5926 150.424 92.7638 150.139 92.7638 149.854C92.8208 149.854 92.8777 149.854 92.9347 149.854C92.9918 149.854 93.049 149.854 93.1059 149.854H93.163C93.3341 149.911 93.448 149.911 93.6192 149.968C93.6762 149.968 93.7332 150.025 93.7901 150.025H93.8473C93.9613 150.082 94.0754 150.139 94.2465 150.196C94.3036 150.253 94.3604 150.253 94.4175 150.31C94.5315 150.424 94.6456 150.481 94.7027 150.595C94.7027 150.595 94.7027 150.595 94.7597 150.652C94.8168 150.709 94.8168 150.766 94.8739 150.823C94.9309 150.88 94.9307 150.937 94.9877 150.994C94.9877 150.994 94.9878 151.051 95.0448 151.051C95.0448 151.108 95.1019 151.222 95.1019 151.279C95.1019 151.279 95.1019 151.393 95.159 151.45C95.159 151.507 95.159 151.564 95.159 151.564C95.159 151.678 95.159 151.735 95.159 151.849C95.159 151.849 95.159 151.849 95.159 151.906C95.159 151.906 95.159 151.906 95.159 151.963C95.159 152.02 95.1589 152.077 95.1019 152.134C95.1019 152.191 95.0448 152.305 95.0448 152.362C95.0448 152.419 95.0448 152.419 94.9877 152.476C94.9307 152.59 94.8737 152.761 94.7597 152.875C94.7027 152.932 94.6456 152.989 94.6456 153.046C94.6456 153.103 94.5886 153.103 94.5316 153.16C94.4175 153.274 94.3035 153.388 94.1894 153.502L94.1324 153.559C94.0753 153.616 93.9613 153.673 93.9042 153.73C93.8473 153.787 93.7903 153.787 93.7333 153.844C93.6764 153.844 93.6192 153.901 93.6192 153.901C93.5051 153.958 93.3339 153.958 93.2199 154.015C93.2199 154.015 93.2202 154.015 93.163 154.015C93.1061 154.015 92.9918 154.015 92.9347 154.015C92.8777 154.015 92.8779 154.015 92.8208 154.015C92.7638 154.015 92.7068 154.015 92.5928 153.958C92.5358 153.958 92.4785 153.901 92.4215 153.901H92.3644C92.3075 153.844 92.2505 153.844 92.1935 153.787C92.1935 153.787 92.1935 153.787 92.1364 153.787C92.0794 153.73 91.9084 153.559 91.9084 153.559C91.8514 153.502 91.7941 153.445 91.7941 153.388C91.7372 153.274 91.6802 153.16 91.6232 153.046C91.6232 152.989 91.5661 152.932 91.5661 152.818C91.5661 152.761 91.5093 152.419 91.4523 152.362V152.305C91.4523 152.248 91.4523 152.191 91.4523 152.134C91.5663 152.077 91.5661 151.963 91.5661 151.906Z" fill="#3F4254"/>
<path d="M285.797 75.9334L285.398 76.1615C284.6 77.8712 283.858 79.638 283.06 81.3479C284.714 82.3738 285.911 84.2545 285.683 86.2493C285.342 88.529 283.174 89.8399 281.121 90.4098C280.323 90.6379 279.525 90.8088 278.727 90.9228C276.902 94.9124 275.133 98.902 273.308 102.892C272.795 104.088 272.225 105.342 272.454 106.596C272.681 108.192 273.992 109.332 275.133 110.415C280.209 115.316 284.201 121.3 286.71 127.912C294.237 116.969 301.709 106.083 309.236 95.1403C303.076 86.4772 295.549 80.3789 285.797 75.9334Z" fill="#9ED5F0"/>
<path d="M282.946 93.6015C283.573 98.3891 283.004 103.234 281.293 107.793C281.008 108.591 282.148 109.218 282.719 108.648C287.736 103.348 294.808 100.156 302.108 99.814C303.191 99.7569 303.191 98.0472 302.108 98.1041C294.351 98.446 286.882 101.809 281.52 107.451C281.977 107.736 282.49 108.021 282.946 108.306C284.714 103.633 285.284 98.56 284.658 93.6586C284.486 92.5187 282.775 92.5187 282.946 93.6015Z" fill="#3F4254"/>
</g>
<defs>
<clipPath id="clip0_5_65">
<rect width="313" height="244" fill="white"/>
</clipPath>
</defs>
</svg>
